<?xml version="1.0" encoding="UTF-8" standalone="no"?>
<!-- Created with Inkscape (http://www.inkscape.org/) -->

<svg
   width="150"
   height="450"
   viewBox="0 0 39.687499 119.0625"
   version="1.1"
   id="svg703"
   inkscape:version="1.2.1 (9c6d41e410, 2022-07-14)"
   sodipodi:docname="autumn3.svg"
   xmlns:inkscape="http://www.inkscape.org/namespaces/inkscape"
   xmlns:sodipodi="http://sodipodi.sourceforge.net/DTD/sodipodi-0.dtd"
   xmlns="http://www.w3.org/2000/svg"
   xmlns:svg="http://www.w3.org/2000/svg">
  <sodipodi:namedview
     id="namedview705"
     pagecolor="#ffffff"
     bordercolor="#000000"
     borderopacity="0.25"
     inkscape:showpageshadow="2"
     inkscape:pageopacity="0.0"
     inkscape:pagecheckerboard="0"
     inkscape:deskcolor="#d1d1d1"
     inkscape:document-units="mm"
     showgrid="false"
     inkscape:zoom="0.74564394"
     inkscape:cx="396.97231"
     inkscape:cy="274.25959"
     inkscape:window-width="1346"
     inkscape:window-height="1040"
     inkscape:window-x="476"
     inkscape:window-y="149"
     inkscape:window-maximized="0"
     inkscape:current-layer="layer1" />
  <defs
     id="defs700">
    <clipPath
       clipPathUnits="userSpaceOnUse"
       id="clipPath31">
      <path
         d="M 0,660 H 660 V 0 H 0 Z"
         id="path29" />
    </clipPath>
  </defs>
  <g
     inkscape:label="Ebene 1"
     inkscape:groupmode="layer"
     id="layer1">
    <g
       id="g25"
       transform="matrix(0.21836917,0,0,-0.21836917,-4.6424658,133.09409)">
      <g
         id="g27"
         clip-path="url(#clipPath31)">
        <path
           d="M 0,-1 H 661 V 660 H 0 Z"
           style="fill:#c7e2f6;fill-opacity:1;fill-rule:evenodd;stroke:none"
           id="path33" />
        <path
           d="M 355.392,192.966 C 356.941,174.104 340.05,158.7 321.125,158.7 c -18.924,0 -34.266,15.341 -34.266,34.266 0,1.005 0.046,1.998 0.13,2.981 -7.886,-7.705 -18.67,-12.457 -30.568,-12.457 -10.853,0 -20.782,3.954 -28.427,10.499 -6.78,-8.838 -17.446,-14.537 -29.444,-14.537 -20.484,0 -39.842,16.791 -37.09,37.091 6.227,45.929 42.74,74.747 56.527,31.591 19.889,61.473 86.133,40.02 81.5,-28.599 19.213,32.947 51.616,25.63 55.905,-26.569 M 0,203.984 v 66.557 c 11.276,13.906 27.329,15.951 39.309,-4.012 21.684,54.241 82.894,38.658 86.291,-24.968 1.376,-25.788 -20.934,-46.756 -46.757,-46.756 -11.397,0 -21.841,4.079 -29.953,10.855 -6.615,-6.125 -15.465,-9.871 -25.192,-9.871 -8.795,0 -17.146,3.073 -23.698,8.195"
           style="fill:#9ac421;fill-opacity:1;fill-rule:evenodd;stroke:none"
           id="path35" />
        <path
           d="M 661,524.953 0,326.707 V 288.316 L 661,440.07 Z M 583.285,660 0,403.257 V 373.64 L 661,628.721 V 660 Z m -431.227,0 H 332.243 L 0,471.946 v 79.766 z"
           style="fill:#dceefa;fill-opacity:1;fill-rule:evenodd;stroke:none"
           id="path37" />
        <path
           d="m 112.225,165.657 c 15.806,0 28.696,56.255 28.696,125.231 0,68.974 -12.89,125.231 -28.696,125.231 -15.806,0 -28.697,-56.257 -28.697,-125.231 0,-68.976 12.891,-125.231 28.697,-125.231"
           style="fill:#2f9a3f;fill-opacity:1;fill-rule:evenodd;stroke:none"
           id="path39" />
        <path
           d="m 161.752,150.036 c 19.255,0 34.96,67.254 34.96,149.711 0,82.46 -15.705,149.713 -34.96,149.713 -19.255,0 -34.96,-67.253 -34.96,-149.713 0,-82.457 15.705,-149.711 34.96,-149.711"
           style="fill:#2f9a3f;fill-opacity:1;fill-rule:evenodd;stroke:none"
           id="path41" />
        <path
           d="m 64.868,272.527 2.973,-5.524 c 7.277,-13.522 11.305,-28.553 11.763,-43.902 l 8.912,1.064 0.387,4.07 c 1.662,17.445 6.229,34.49 13.513,50.428 l -1.461,0.66 -3.057,-4.585 c -6.245,-9.365 -9.823,-17.541 -14.813,-27.633 -4.737,11.998 -6.988,19.152 -16.87,26.951 z"
           style="fill:#462c19;fill-opacity:1;fill-rule:evenodd;stroke:none"
           id="path43" />
        <path
           d="m 42.541,284.087 c -24.499,-19.003 -43.147,12.704 -11.687,21.261 -9.025,24.281 8.506,36.254 28.541,20.853 -5.955,41.627 43.429,29.642 36.327,-10.572 8.882,21.914 30.45,15.455 25.132,-5.331 23.597,20.825 35.012,-23.392 4.442,-16.392 12.126,-18.573 5.486,-34.92 -20.119,-17.328 9.994,-28.216 -26.997,-26.003 -27.883,-1.64 -3.661,-30.372 -42.396,-21.85 -34.753,9.149"
           style="fill:#ef6d17;fill-opacity:1;fill-rule:evenodd;stroke:none"
           id="path45" />
        <path
           d="m 58.944,293.083 c -13.488,-10.463 -23.756,6.995 -6.434,11.704 -4.969,13.369 4.682,19.961 15.713,11.483 -3.279,22.918 23.911,16.32 20.001,-5.82 4.891,12.065 16.765,8.507 13.837,-2.936 12.991,11.465 19.276,-12.879 2.446,-9.026 6.676,-10.224 3.019,-19.225 -11.078,-9.539 5.503,-15.535 -14.863,-14.316 -15.351,-0.904 -2.015,-16.721 -23.342,-12.029 -19.134,5.038"
           style="fill:#f68413;fill-opacity:1;fill-rule:evenodd;stroke:none"
           id="path47" />
        <path
           d="M 0,234.759 V -1 H 661 V 39.49 C 543.389,136.867 334.262,211.884 95.822,230.503 63.279,233.044 31.295,234.427 0,234.759"
           style="fill:#fbf670;fill-opacity:1;fill-rule:evenodd;stroke:none"
           id="path49" />
        <path
           d="m 466.825,489.539 -29.248,-15.381 102.918,29.683 102.919,29.683 -28.81,-1.467 c -3.68,25.144 -24.804,37.965 -28.807,10.809 -10.159,53.359 -53.363,42.26 -51.213,-13.876 -5.189,18.558 -17.434,15.082 -28.059,-7.254 -3.778,40.488 -35.518,14.3 -39.7,-32.197"
           style="fill:#ffffff;fill-opacity:1;fill-rule:evenodd;stroke:none"
           id="path51" />
        <path
           d="M 661,316.998 V 202.287 c -4.843,-1.62 -10.022,-2.498 -15.408,-2.498 -20.369,0 -37.805,12.545 -45.011,30.327 -3.847,-23.887 -24.553,-42.132 -49.524,-42.132 -27.706,0 -51.134,22.477 -50.165,50.165 3.049,87.259 80.714,110.738 96.844,18.41 5.754,53.282 37.699,71.926 63.264,60.439 M 366.813,238.594 c 0.432,124.232 108.249,119.831 109.967,-1.768 0.429,-30.374 -24.624,-55.001 -54.999,-55.001 -9.995,0 -19.366,2.668 -27.444,7.328 -5.328,-13.748 -18.678,-23.496 -34.308,-23.496 -20.313,0 -39.501,16.65 -36.78,36.781 7.073,52.33 31.646,84.166 43.564,36.156"
           style="fill:#87b027;fill-opacity:1;fill-rule:evenodd;stroke:none"
           id="path53" />
        <path
           d="m 455.742,144.291 c 14.224,0 25.823,72.164 25.823,160.641 0,88.477 -11.599,160.64 -25.823,160.64 -14.222,0 -25.821,-72.163 -25.821,-160.64 0,-88.477 11.599,-160.641 25.821,-160.641"
           style="fill:#267837;fill-opacity:1;fill-rule:evenodd;stroke:none"
           id="path55" />
        <path
           d="m 500.892,150.035 c 18.157,0 32.967,81.454 32.967,181.325 0,99.869 -14.81,181.324 -32.967,181.324 -18.16,0 -32.968,-81.455 -32.968,-181.324 0,-99.871 14.808,-181.325 32.968,-181.325"
           style="fill:#267837;fill-opacity:1;fill-rule:evenodd;stroke:none"
           id="path57" />
        <path
           d="m 600.573,165.657 c 15.806,0 28.697,67.363 28.697,149.957 0,82.594 -12.891,149.958 -28.697,149.958 -15.805,0 -28.697,-67.364 -28.697,-149.958 0,-82.594 12.892,-149.957 28.697,-149.957"
           style="fill:#267837;fill-opacity:1;fill-rule:evenodd;stroke:none"
           id="path59" />
        <path
           d="m 502.823,293.406 4.545,-8.443 c 11.123,-20.668 17.279,-43.644 17.98,-67.104 l 13.622,1.624 0.593,6.222 c 2.54,26.665 9.52,52.719 20.652,77.081 l -2.232,1.006 -4.671,-7.007 c -9.547,-14.314 -15.017,-26.811 -22.642,-42.235 -7.241,18.339 -10.684,29.27 -25.787,41.193 z"
           style="fill:#462c19;fill-opacity:1;fill-rule:evenodd;stroke:none"
           id="path61" />
        <path
           d="m 468.697,311.073 c -37.445,-29.045 -65.95,19.42 -17.865,32.495 -13.792,37.118 13.002,55.418 43.626,31.877 -9.102,63.626 66.381,45.307 55.526,-16.158 13.576,33.495 46.543,23.621 38.412,-8.15 36.069,31.831 53.516,-35.754 6.792,-25.052 18.535,-28.39 8.384,-53.376 -30.751,-26.487 15.274,-43.128 -41.266,-39.744 -42.62,-2.506 -5.595,-46.425 -64.802,-33.4 -53.12,13.981"
           style="fill:#fab40a;fill-opacity:1;fill-rule:evenodd;stroke:none"
           id="path63" />
        <path
           d="m 493.77,324.824 c -20.618,-15.99 -36.312,10.693 -9.836,17.891 -7.593,20.435 7.159,30.511 24.019,17.551 -5.012,35.03 36.547,24.944 30.57,-8.897 7.474,18.442 25.626,13.005 21.149,-4.486 19.858,17.524 29.465,-19.686 3.74,-13.794 10.203,-15.631 4.615,-29.386 -16.932,-14.583 8.41,-23.744 -22.718,-21.882 -23.464,-1.381 -3.081,-25.559 -35.679,-18.388 -29.246,7.699"
           style="fill:#fad316;fill-opacity:1;fill-rule:evenodd;stroke:none"
           id="path65" />
        <path
           d="M 661,234.759 V -1 H 0 v 40.49 c 117.611,97.377 326.738,172.394 565.177,191.013 32.544,2.541 64.527,3.924 95.823,4.256"
           style="fill:#f9e52c;fill-opacity:1;fill-rule:evenodd;stroke:none"
           id="path67" />
        <path
           d="m 404.276,208.77 c 44.392,8.625 90.541,15.302 137.952,19.757 C 477.686,188.548 427.03,128.739 398.432,57.255 l -120.555,-6.047 17.812,31.366 c 27.767,48.891 64.707,91.698 108.587,126.196"
           style="fill:#fbf670;fill-opacity:1;fill-rule:evenodd;stroke:none"
           id="path69" />
        <path
           d="M 661,166.147 V -1 H 0 v 28.708 c 117.611,69.037 326.738,122.222 565.177,135.422 32.544,1.802 64.527,2.781 95.823,3.017"
           style="fill:#adda1a;fill-opacity:1;fill-rule:evenodd;stroke:none"
           id="path71" />
        <path
           d="M 661,135.387 V -1 H 0 v 23.424 c 117.611,56.333 326.738,99.73 565.177,110.501 32.544,1.471 64.527,2.269 95.823,2.462"
           style="fill:#9bc820;fill-opacity:1;fill-rule:evenodd;stroke:none"
           id="path73" />
        <path
           d="m 186.27,474.158 313.498,116.401 -32.675,-4.184 c -16.365,58.139 -66.669,30.634 -68.44,-17.022 -13.045,76.768 -75.341,47.931 -100.23,-37.215 -4.146,65.436 -50.153,37.753 -78.137,-34.889 z"
           style="fill:#ffffff;fill-opacity:1;fill-rule:evenodd;stroke:none"
           id="path75" />
        <path
           d="m 198.664,553.638 22.515,5.633 -79.226,-42.557 -79.228,-42.556 22.178,18.278 c 2.834,25.904 19.095,52.238 22.176,29.699 7.821,56.574 41.08,75.706 39.425,22.009 3.994,20.805 13.42,25.92 21.598,12.381 2.91,40.249 27.342,37.524 30.562,-2.887"
           style="fill:#ffffff;fill-opacity:1;fill-rule:evenodd;stroke:none"
           id="path77" />
        <path
           d="m 608.859,30.679 c 6.105,0 11.055,-1.282 11.055,-2.863 0,-1.579 -4.95,-2.859 -11.055,-2.859 -6.105,0 -11.053,1.28 -11.053,2.859 0,1.581 4.948,2.863 11.053,2.863 m -142.41,3.902 c 9.336,0 16.905,-2.214 16.905,-4.943 0,-2.728 -7.569,-4.942 -16.905,-4.942 -9.336,0 -16.904,2.214 -16.904,4.942 0,2.729 7.568,4.943 16.904,4.943 m 50.073,-9.624 c 3.519,0 6.372,-1.281 6.372,-2.862 0,-1.579 -2.853,-2.862 -6.372,-2.862 -3.52,0 -6.373,1.283 -6.373,2.862 0,1.581 2.853,2.862 6.373,2.862 m 51.239,-5.724 c 4.958,0 8.974,-1.281 8.974,-2.86 0,-1.581 -4.016,-2.862 -8.974,-2.862 -4.955,0 -8.975,1.281 -8.975,2.862 0,1.579 4.02,2.86 8.975,2.86 m 49.551,45.552 c 9.334,0 16.904,-2.214 16.904,-4.942 0,-2.73 -7.57,-4.943 -16.904,-4.943 -9.337,0 -16.907,2.213 -16.907,4.943 0,2.728 7.57,4.942 16.907,4.942 M 369.47,50.026 c -6.105,0 -11.054,1.281 -11.054,2.862 0,1.58 4.949,2.862 11.054,2.862 6.106,0 11.054,-1.282 11.054,-2.862 0,-1.581 -4.948,-2.862 -11.054,-2.862 m 142.411,-3.901 c -9.337,0 -16.904,2.213 -16.904,4.941 0,2.73 7.567,4.943 16.904,4.943 9.336,0 16.904,-2.213 16.904,-4.943 0,-2.728 -7.568,-4.941 -16.904,-4.941 m -50.073,9.625 c -3.519,0 -6.371,1.28 -6.371,2.86 0,1.581 2.852,2.862 6.371,2.862 3.52,0 6.373,-1.281 6.373,-2.862 0,-1.58 -2.853,-2.86 -6.373,-2.86 m -51.24,5.722 c -4.957,0 -8.974,1.28 -8.974,2.861 0,1.58 4.017,2.86 8.974,2.86 4.958,0 8.975,-1.28 8.975,-2.86 0,-1.581 -4.017,-2.861 -8.975,-2.861 M 361.02,15.92 c -9.336,0 -16.906,2.214 -16.906,4.943 0,2.73 7.57,4.942 16.906,4.942 9.335,0 16.905,-2.212 16.905,-4.942 0,-2.729 -7.57,-4.943 -16.905,-4.943 m 58.523,20.321 c -9.335,0 -16.904,2.213 -16.904,4.942 0,2.729 7.569,4.942 16.904,4.942 9.336,0 16.904,-2.213 16.904,-4.942 0,-2.729 -7.568,-4.942 -16.904,-4.942 m 168.524,42.047 c 3.908,0 7.075,-0.819 7.075,-1.831 0,-1.011 -3.167,-1.831 -7.075,-1.831 -3.906,0 -7.074,0.82 -7.074,1.831 0,1.012 3.168,1.831 7.074,1.831 m -91.135,2.497 c 5.974,0 10.818,-1.416 10.818,-3.162 0,-1.746 -4.844,-3.162 -10.818,-3.162 -5.974,0 -10.818,1.416 -10.818,3.162 0,1.746 4.844,3.162 10.818,3.162 m 32.045,-6.159 c 2.252,0 4.078,-0.819 4.078,-1.831 0,-1.011 -1.826,-1.83 -4.078,-1.83 -2.252,0 -4.079,0.819 -4.079,1.83 0,1.012 1.827,1.831 4.079,1.831 m 32.789,-3.661 c 3.173,0 5.744,-0.82 5.744,-1.831 0,-1.012 -2.571,-1.831 -5.744,-1.831 -3.17,0 -5.742,0.819 -5.742,1.831 0,1.011 2.572,1.831 5.742,1.831 m 31.711,29.149 c 5.974,0 10.818,-1.416 10.818,-3.162 0,-1.747 -4.844,-3.162 -10.818,-3.162 -5.976,0 -10.82,1.415 -10.82,3.162 0,1.746 4.844,3.162 10.82,3.162 M 556.024,87.11 c 5.973,0 10.817,-1.416 10.817,-3.162 0,-1.746 -4.844,-3.163 -10.817,-3.163 -5.975,0 -10.819,1.417 -10.819,3.163 0,1.746 4.844,3.162 10.819,3.162 m 2.762,-42.646 c 9.336,0 16.904,-2.212 16.904,-4.942 0,-2.729 -7.568,-4.941 -16.904,-4.941 -9.335,0 -16.904,2.212 -16.904,4.941 0,2.73 7.569,4.942 16.904,4.942"
           style="fill:#87b027;fill-opacity:1;fill-rule:evenodd;stroke:none"
           id="path79" />
        <path
           d="m 375.205,79.713 c -6.104,0 -11.053,1.282 -11.053,2.861 0,1.58 4.949,2.862 11.053,2.862 6.106,0 11.055,-1.282 11.055,-2.862 0,-1.579 -4.949,-2.861 -11.055,-2.861 M 221.781,53.661 c -9.337,0 -16.904,2.212 -16.904,4.942 0,2.729 7.567,4.941 16.904,4.941 9.336,0 16.905,-2.212 16.905,-4.941 0,-2.73 -7.569,-4.942 -16.905,-4.942 m -50.073,9.624 c -3.52,0 -6.373,1.281 -6.373,2.862 0,1.58 2.853,2.861 6.373,2.861 3.519,0 6.373,-1.281 6.373,-2.861 0,-1.581 -2.854,-2.862 -6.373,-2.862 m 259.608,33.969 c -4.956,0 -8.974,1.28 -8.974,2.86 0,1.581 4.018,2.862 8.974,2.862 4.956,0 8.975,-1.281 8.975,-2.862 0,-1.58 -4.019,-2.86 -8.975,-2.86 M 70.919,23.457 c -9.336,0 -16.904,2.213 -16.904,4.941 0,2.731 7.568,4.944 16.904,4.944 9.336,0 16.905,-2.213 16.905,-4.944 0,-2.728 -7.569,-4.941 -16.905,-4.941 m 247.84,14.759 c 6.105,0 11.054,-1.282 11.054,-2.862 0,-1.58 -4.949,-2.862 -11.054,-2.862 -6.105,0 -11.055,1.282 -11.055,2.862 0,1.58 4.95,2.862 11.055,2.862 m -142.41,3.901 c 9.336,0 16.904,-2.213 16.904,-4.942 0,-2.73 -7.568,-4.942 -16.904,-4.942 -9.336,0 -16.904,2.212 -16.904,4.942 0,2.729 7.568,4.942 16.904,4.942 m 50.072,-9.625 c 3.52,0 6.373,-1.28 6.373,-2.86 0,-1.581 -2.853,-2.861 -6.373,-2.861 -3.519,0 -6.372,1.28 -6.372,2.861 0,1.58 2.853,2.86 6.372,2.86 m 51.24,-5.721 c 4.956,0 8.975,-1.281 8.975,-2.862 0,-1.58 -4.019,-2.86 -8.975,-2.86 -4.955,0 -8.974,1.28 -8.974,2.86 0,1.581 4.019,2.862 8.974,2.862 M 327.21,72.32 c 9.337,0 16.904,-2.212 16.904,-4.941 0,-2.73 -7.567,-4.941 -16.904,-4.941 -9.335,0 -16.904,2.211 -16.904,4.941 0,2.729 7.569,4.941 16.904,4.941 M 268.687,52.001 c 9.335,0 16.904,-2.213 16.904,-4.942 0,-2.729 -7.569,-4.942 -16.904,-4.942 -9.336,0 -16.905,2.213 -16.905,4.942 0,2.729 7.569,4.942 16.905,4.942 M 35.697,6.421 c -3.907,0 -7.074,0.819 -7.074,1.831 0,1.012 3.167,1.831 7.074,1.831 3.907,0 7.074,-0.819 7.074,-1.831 0,-1.012 -3.167,-1.831 -7.074,-1.831 m 155.601,1.036 c -5.974,0 -10.818,1.416 -10.818,3.162 0,1.746 4.844,3.162 10.818,3.162 5.974,0 10.818,-1.416 10.818,-3.162 0,-1.746 -4.844,-3.162 -10.818,-3.162 m -32.045,6.157 c -2.252,0 -4.077,0.822 -4.077,1.831 0,1.013 1.825,1.832 4.077,1.832 2.253,0 4.079,-0.819 4.079,-1.832 0,-1.009 -1.826,-1.831 -4.079,-1.831 m -32.79,3.663 c -3.172,0 -5.743,0.821 -5.743,1.831 0,1.012 2.571,1.831 5.743,1.831 3.172,0 5.743,-0.819 5.743,-1.831 0,-1.01 -2.571,-1.831 -5.743,-1.831 m 318.462,62.134 c -5.975,0 -10.819,1.417 -10.819,3.163 0,1.746 4.844,3.162 10.819,3.162 5.973,0 10.817,-1.416 10.817,-3.162 0,-1.746 -4.844,-3.163 -10.817,-3.163 m 45.147,17.541 c -5.974,0 -10.817,1.415 -10.817,3.162 0,1.746 4.843,3.163 10.817,3.163 5.976,0 10.82,-1.417 10.82,-3.163 0,-1.747 -4.844,-3.162 -10.82,-3.162 M 129.443,43.776 c -9.336,0 -16.904,2.214 -16.904,4.944 0,2.727 7.568,4.941 16.904,4.941 9.337,0 16.905,-2.214 16.905,-4.941 0,-2.73 -7.568,-4.944 -16.905,-4.944"
           style="fill:#87b027;fill-opacity:1;fill-rule:evenodd;stroke:none"
           id="path81" />
        <path
           d="m 227.911,22.311 c 0,0.677 -0.097,1.26 -0.299,1.742 -0.194,0.487 -0.468,0.858 -0.822,1.123 -0.351,0.258 -0.737,0.39 -1.166,0.39 -0.676,0 -1.247,-0.286 -1.713,-0.839 -0.467,-0.561 -0.699,-1.375 -0.699,-2.461 0,-1.022 0.232,-1.814 0.692,-2.376 0.464,-0.567 1.038,-0.855 1.72,-0.855 0.409,0 0.787,0.125 1.137,0.375 0.344,0.246 0.625,0.616 0.835,1.109 0.212,0.498 0.315,1.092 0.315,1.792 m -4.813,3.733 v -0.309 c 0.461,0.594 0.94,1.034 1.437,1.309 0.499,0.28 1.066,0.423 1.695,0.423 0.754,0 1.451,-0.206 2.087,-0.616 0.634,-0.405 1.136,-0.997 1.506,-1.781 0.369,-0.785 0.552,-1.708 0.552,-2.78 0,-0.788 -0.104,-1.519 -0.317,-2.171 -0.212,-0.663 -0.505,-1.218 -0.878,-1.665 -0.372,-0.447 -0.813,-0.795 -1.318,-1.03 -0.508,-0.245 -1.053,-0.364 -1.632,-0.364 -0.705,0 -1.294,0.145 -1.771,0.44 -0.48,0.293 -0.931,0.723 -1.361,1.294 v -3.846 c 0,-1.13 -0.394,-1.689 -1.179,-1.689 -0.462,0 -0.769,0.141 -0.916,0.433 -0.15,0.293 -0.225,0.717 -0.225,1.273 v 11.063 c 0,0.486 0.099,0.854 0.305,1.092 0.206,0.24 0.484,0.364 0.836,0.364 0.348,0 0.632,-0.124 0.851,-0.374 0.218,-0.251 0.328,-0.606 0.328,-1.066"
           style="fill:#ffffff;fill-opacity:1;fill-rule:nonzero;stroke:none"
           id="path83" />
        <path
           d="m 238.729,18.508 v 0.326 c -0.297,-0.39 -0.604,-0.712 -0.93,-0.972 -0.324,-0.269 -0.677,-0.464 -1.059,-0.591 -0.386,-0.125 -0.824,-0.191 -1.315,-0.191 -0.592,0 -1.125,0.13 -1.595,0.383 -0.473,0.258 -0.836,0.611 -1.092,1.061 -0.31,0.545 -0.461,1.328 -0.461,2.343 v 5.081 c 0,0.51 0.111,0.896 0.334,1.146 0.222,0.255 0.514,0.385 0.88,0.385 0.373,0 0.672,-0.13 0.9,-0.389 0.227,-0.257 0.341,-0.641 0.341,-1.142 v -4.104 c 0,-0.592 0.049,-1.091 0.14,-1.493 0.101,-0.407 0.272,-0.723 0.525,-0.953 0.245,-0.226 0.582,-0.339 1.007,-0.339 0.418,0 0.808,0.129 1.17,0.385 0.369,0.255 0.636,0.587 0.802,0.999 0.141,0.367 0.207,1.161 0.207,2.388 v 3.117 c 0,0.501 0.114,0.885 0.343,1.142 0.226,0.259 0.522,0.389 0.887,0.389 0.368,0 0.661,-0.13 0.882,-0.385 0.221,-0.25 0.33,-0.636 0.33,-1.146 v -7.424 c 0,-0.488 -0.103,-0.856 -0.318,-1.096 -0.209,-0.247 -0.484,-0.366 -0.821,-0.366 -0.334,0 -0.611,0.128 -0.83,0.377 -0.218,0.257 -0.327,0.608 -0.327,1.069"
           style="fill:#ffffff;fill-opacity:1;fill-rule:nonzero;stroke:none"
           id="path85" />
        <path
           d="m 245.852,22.209 c 0,-1.019 0.221,-1.801 0.666,-2.351 0.448,-0.545 1.034,-0.823 1.761,-0.823 0.62,0 1.149,0.282 1.599,0.842 0.448,0.561 0.669,1.358 0.669,2.405 0,0.684 -0.092,1.265 -0.277,1.749 -0.188,0.49 -0.455,0.868 -0.791,1.134 -0.348,0.263 -0.743,0.401 -1.2,0.401 -0.471,0 -0.883,-0.138 -1.25,-0.401 -0.368,-0.266 -0.654,-0.654 -0.865,-1.156 -0.209,-0.5 -0.312,-1.1 -0.312,-1.8 m -0.118,7.617 V 25.91 c 0.457,0.506 0.93,0.885 1.41,1.155 0.48,0.266 1.075,0.402 1.783,0.402 0.814,0 1.528,-0.206 2.145,-0.608 0.613,-0.41 1.092,-0.991 1.429,-1.756 0.342,-0.768 0.509,-1.674 0.509,-2.726 0,-0.779 -0.093,-1.49 -0.281,-2.141 -0.19,-0.646 -0.463,-1.205 -0.822,-1.683 -0.363,-0.476 -0.799,-0.838 -1.311,-1.108 -0.514,-0.255 -1.079,-0.385 -1.695,-0.385 -0.378,0 -0.733,0.046 -1.068,0.141 -0.334,0.093 -0.618,0.214 -0.849,0.371 -0.236,0.149 -0.435,0.309 -0.6,0.469 -0.165,0.165 -0.38,0.408 -0.65,0.733 v -0.25 c 0,-0.486 -0.113,-0.849 -0.336,-1.096 -0.22,-0.247 -0.504,-0.368 -0.843,-0.368 -0.349,0 -0.624,0.121 -0.834,0.368 -0.206,0.255 -0.309,0.613 -0.309,1.096 v 11.192 c 0,0.514 0.101,0.908 0.303,1.173 0.2,0.268 0.478,0.4 0.84,0.4 0.375,0 0.668,-0.128 0.87,-0.383 0.206,-0.252 0.309,-0.609 0.309,-1.08"
           style="fill:#ffffff;fill-opacity:1;fill-rule:nonzero;stroke:none"
           id="path87" />
        <path
           d="m 254.743,18.618 v 11.113 c 0,0.516 0.109,0.902 0.327,1.165 0.22,0.261 0.515,0.393 0.887,0.393 0.371,0 0.67,-0.129 0.9,-0.391 0.225,-0.257 0.34,-0.65 0.34,-1.167 V 18.618 c 0,-0.517 -0.117,-0.91 -0.346,-1.173 -0.23,-0.255 -0.529,-0.385 -0.894,-0.385 -0.36,0 -0.649,0.133 -0.876,0.403 -0.226,0.271 -0.338,0.653 -0.338,1.155"
           style="fill:#ffffff;fill-opacity:1;fill-rule:nonzero;stroke:none"
           id="path89" />
        <path
           d="m 262.188,26.02 v -7.402 c 0,-0.516 -0.119,-0.903 -0.348,-1.167 -0.235,-0.258 -0.534,-0.391 -0.891,-0.391 -0.361,0 -0.653,0.133 -0.877,0.402 -0.224,0.272 -0.338,0.654 -0.338,1.156 v 7.33 c 0,0.501 0.114,0.885 0.338,1.142 0.224,0.259 0.516,0.389 0.877,0.389 0.357,0 0.656,-0.13 0.891,-0.389 0.229,-0.257 0.348,-0.611 0.348,-1.07 m -1.215,2.652 c -0.34,0 -0.631,0.106 -0.879,0.333 -0.236,0.217 -0.36,0.531 -0.36,0.931 0,0.361 0.124,0.656 0.373,0.897 0.247,0.233 0.537,0.345 0.866,0.345 0.319,0 0.602,-0.104 0.848,-0.316 0.243,-0.212 0.367,-0.525 0.367,-0.926 0,-0.399 -0.121,-0.705 -0.359,-0.925 -0.24,-0.223 -0.524,-0.339 -0.856,-0.339"
           style="fill:#ffffff;fill-opacity:1;fill-rule:nonzero;stroke:none"
           id="path91" />
        <path
           d="m 273.521,20.232 c 0,-0.318 -0.09,-0.66 -0.272,-1.022 -0.187,-0.363 -0.465,-0.708 -0.84,-1.036 -0.374,-0.328 -0.846,-0.593 -1.415,-0.79 -0.569,-0.205 -1.213,-0.304 -1.923,-0.304 -1.519,0 -2.702,0.462 -3.554,1.382 -0.852,0.927 -1.277,2.16 -1.277,3.713 0,1.05 0.194,1.982 0.582,2.786 0.39,0.805 0.957,1.433 1.692,1.872 0.735,0.443 1.619,0.663 2.642,0.663 0.637,0 1.222,-0.099 1.752,-0.289 0.531,-0.195 0.981,-0.448 1.347,-0.751 0.37,-0.307 0.65,-0.634 0.849,-0.98 0.197,-0.348 0.29,-0.672 0.29,-0.973 0,-0.303 -0.111,-0.561 -0.327,-0.776 -0.22,-0.215 -0.483,-0.322 -0.796,-0.322 -0.206,0 -0.374,0.061 -0.51,0.17 -0.132,0.105 -0.286,0.278 -0.453,0.527 -0.301,0.472 -0.614,0.831 -0.941,1.074 -0.327,0.235 -0.743,0.359 -1.242,0.359 -0.729,0 -1.314,-0.301 -1.758,-0.89 -0.443,-0.596 -0.663,-1.405 -0.663,-2.429 0,-0.481 0.058,-0.93 0.171,-1.332 0.114,-0.404 0.279,-0.744 0.492,-1.032 0.217,-0.286 0.476,-0.5 0.785,-0.646 0.305,-0.148 0.641,-0.224 1.004,-0.224 0.495,0 0.914,0.118 1.265,0.358 0.352,0.239 0.663,0.602 0.93,1.086 0.153,0.293 0.314,0.516 0.488,0.683 0.175,0.161 0.388,0.239 0.639,0.239 0.299,0 0.548,-0.117 0.748,-0.352 0.193,-0.243 0.295,-0.495 0.295,-0.764"
           style="fill:#ffffff;fill-opacity:1;fill-rule:nonzero;stroke:none"
           id="path93" />
        <path
           d="m 277.565,22.282 c 0,-0.693 0.103,-1.282 0.31,-1.773 0.208,-0.489 0.487,-0.853 0.845,-1.099 0.364,-0.25 0.756,-0.375 1.177,-0.375 0.435,0 0.829,0.12 1.184,0.354 0.357,0.235 0.641,0.595 0.857,1.08 0.211,0.484 0.316,1.091 0.316,1.813 0,0.686 -0.105,1.271 -0.316,1.762 -0.216,0.496 -0.501,0.867 -0.865,1.132 -0.363,0.258 -0.759,0.39 -1.189,0.39 -0.448,0 -0.85,-0.138 -1.206,-0.401 -0.35,-0.266 -0.627,-0.649 -0.821,-1.148 -0.194,-0.5 -0.292,-1.071 -0.292,-1.735 m 4.825,-3.758 v 0.25 c -0.328,-0.394 -0.655,-0.713 -0.977,-0.96 -0.318,-0.248 -0.667,-0.435 -1.042,-0.565 -0.372,-0.123 -0.784,-0.189 -1.227,-0.189 -0.585,0 -1.132,0.13 -1.631,0.385 -0.499,0.27 -0.933,0.635 -1.298,1.118 -0.365,0.479 -0.642,1.047 -0.834,1.7 -0.19,0.647 -0.282,1.352 -0.282,2.114 0,1.597 0.376,2.851 1.124,3.746 0.751,0.895 1.736,1.344 2.958,1.344 0.708,0 1.305,-0.13 1.789,-0.389 0.485,-0.249 0.959,-0.64 1.42,-1.168 v 3.783 c 0,0.528 0.1,0.923 0.303,1.192 0.2,0.27 0.483,0.404 0.856,0.404 0.372,0 0.656,-0.123 0.86,-0.368 0.201,-0.246 0.304,-0.614 0.304,-1.095 V 18.524 c 0,-0.488 -0.109,-0.856 -0.326,-1.096 -0.216,-0.247 -0.495,-0.368 -0.838,-0.368 -0.331,0 -0.612,0.125 -0.832,0.379 -0.218,0.25 -0.327,0.61 -0.327,1.085"
           style="fill:#ffffff;fill-opacity:1;fill-rule:nonzero;stroke:none"
           id="path95" />
        <path
           d="m 293.903,22.264 c 0,1.04 -0.222,1.855 -0.663,2.436 -0.44,0.58 -1.034,0.875 -1.775,0.875 -0.483,0 -0.902,-0.133 -1.27,-0.391 -0.364,-0.262 -0.647,-0.644 -0.843,-1.153 -0.199,-0.501 -0.298,-1.091 -0.298,-1.767 0,-0.67 0.099,-1.255 0.293,-1.755 0.195,-0.499 0.473,-0.882 0.838,-1.152 0.359,-0.261 0.792,-0.392 1.28,-0.392 0.741,0 1.335,0.288 1.775,0.874 0.441,0.582 0.663,1.392 0.663,2.425 m 2.463,0 c 0,-0.762 -0.114,-1.464 -0.342,-2.115 -0.227,-0.637 -0.556,-1.193 -0.986,-1.658 -0.434,-0.464 -0.95,-0.808 -1.55,-1.063 -0.599,-0.247 -1.278,-0.368 -2.023,-0.368 -0.743,0 -1.41,0.121 -2.006,0.376 -0.593,0.248 -1.107,0.605 -1.543,1.072 -0.434,0.469 -0.762,1.015 -0.991,1.65 -0.224,0.639 -0.334,1.337 -0.334,2.11 0,0.775 0.114,1.485 0.341,2.127 0.229,0.646 0.554,1.195 0.979,1.656 0.427,0.453 0.941,0.807 1.548,1.053 0.608,0.247 1.274,0.375 2.006,0.375 0.744,0 1.42,-0.128 2.023,-0.378 0.604,-0.251 1.123,-0.611 1.555,-1.073 0.433,-0.462 0.761,-1.015 0.983,-1.654 0.23,-0.636 0.34,-1.342 0.34,-2.11"
           style="fill:#ffffff;fill-opacity:1;fill-rule:nonzero;stroke:none"
           id="path97" />
        <path
           d="m 306.736,24.378 c -0.183,-0.433 -0.272,-1.194 -0.272,-2.296 v -3.405 c 0,-0.536 -0.115,-0.943 -0.352,-1.214 -0.232,-0.27 -0.543,-0.403 -0.927,-0.403 -0.37,0 -0.669,0.133 -0.899,0.403 -0.231,0.271 -0.345,0.678 -0.345,1.214 v 4.085 c 0,0.643 -0.024,1.144 -0.066,1.505 -0.043,0.353 -0.156,0.648 -0.341,0.877 -0.183,0.229 -0.479,0.344 -0.879,0.344 -0.802,0 -1.329,-0.288 -1.588,-0.868 -0.255,-0.576 -0.379,-1.401 -0.379,-2.479 v -3.464 c 0,-0.535 -0.117,-0.939 -0.346,-1.205 -0.232,-0.279 -0.537,-0.412 -0.91,-0.412 -0.374,0 -0.682,0.133 -0.916,0.412 -0.239,0.266 -0.353,0.67 -0.353,1.201 v 7.335 c 0,0.482 0.103,0.85 0.313,1.097 0.216,0.249 0.495,0.379 0.844,0.379 0.336,0 0.617,-0.118 0.841,-0.352 0.225,-0.234 0.337,-0.556 0.337,-0.971 v -0.244 c 0.424,0.532 0.881,0.926 1.365,1.173 0.485,0.248 1.03,0.377 1.619,0.377 0.618,0 1.143,-0.13 1.589,-0.389 0.446,-0.255 0.809,-0.644 1.095,-1.161 0.415,0.521 0.86,0.916 1.333,1.167 0.476,0.254 0.998,0.383 1.572,0.383 0.676,0 1.252,-0.136 1.736,-0.415 0.487,-0.278 0.849,-0.668 1.089,-1.184 0.211,-0.462 0.314,-1.19 0.314,-2.188 v -5.003 c 0,-0.536 -0.115,-0.943 -0.347,-1.214 -0.238,-0.27 -0.544,-0.403 -0.928,-0.403 -0.372,0 -0.678,0.133 -0.912,0.412 -0.24,0.266 -0.359,0.67 -0.359,1.205 v 4.311 c 0,0.55 -0.022,0.99 -0.066,1.325 -0.045,0.333 -0.166,0.609 -0.366,0.835 -0.196,0.225 -0.498,0.34 -0.897,0.34 -0.323,0 -0.632,-0.103 -0.918,-0.299 -0.296,-0.203 -0.518,-0.472 -0.681,-0.811"
           style="fill:#ffffff;fill-opacity:1;fill-rule:nonzero;stroke:none"
           id="path99" />
        <path
           d="m 320.64,22.216 c -0.362,-0.143 -0.885,-0.285 -1.572,-0.442 -0.686,-0.152 -1.163,-0.261 -1.427,-0.336 -0.265,-0.075 -0.515,-0.212 -0.754,-0.421 -0.242,-0.216 -0.361,-0.508 -0.361,-0.884 0,-0.39 0.141,-0.718 0.423,-0.988 0.282,-0.278 0.652,-0.412 1.108,-0.412 0.484,0 0.935,0.114 1.344,0.336 0.412,0.221 0.714,0.51 0.904,0.858 0.222,0.388 0.335,1.026 0.335,1.923 z m 0.16,-3.714 c -0.596,-0.481 -1.169,-0.843 -1.724,-1.078 -0.553,-0.245 -1.176,-0.364 -1.864,-0.364 -0.632,0 -1.183,0.13 -1.661,0.385 -0.478,0.263 -0.844,0.616 -1.103,1.063 -0.257,0.444 -0.387,0.923 -0.387,1.444 0,0.7 0.217,1.296 0.641,1.793 0.423,0.489 1.007,0.821 1.75,0.993 0.156,0.037 0.546,0.119 1.162,0.25 0.62,0.135 1.146,0.252 1.592,0.364 0.438,0.105 0.919,0.239 1.434,0.394 -0.033,0.681 -0.162,1.176 -0.391,1.496 -0.232,0.314 -0.714,0.469 -1.437,0.469 -0.625,0 -1.092,-0.087 -1.412,-0.272 -0.313,-0.176 -0.583,-0.453 -0.806,-0.819 -0.226,-0.361 -0.383,-0.6 -0.476,-0.718 -0.095,-0.116 -0.295,-0.169 -0.597,-0.169 -0.279,0 -0.516,0.09 -0.713,0.273 -0.204,0.186 -0.306,0.421 -0.306,0.711 0,0.45 0.155,0.89 0.46,1.311 0.306,0.428 0.782,0.778 1.43,1.056 0.647,0.276 1.454,0.412 2.42,0.412 1.078,0 1.927,-0.136 2.548,-0.402 0.617,-0.261 1.05,-0.678 1.305,-1.26 0.257,-0.571 0.385,-1.34 0.385,-2.287 0,-0.601 0,-1.116 -0.006,-1.531 -0.005,-0.422 -0.006,-0.889 -0.013,-1.402 0,-0.481 0.076,-0.986 0.23,-1.504 0.149,-0.52 0.226,-0.861 0.226,-1.008 0,-0.262 -0.122,-0.505 -0.356,-0.718 -0.232,-0.215 -0.502,-0.324 -0.801,-0.324 -0.254,0 -0.499,0.121 -0.749,0.368 -0.244,0.247 -0.505,0.608 -0.781,1.074"
           style="fill:#ffffff;fill-opacity:1;fill-rule:nonzero;stroke:none"
           id="path101" />
        <path
           d="m 327.999,26.02 v -7.402 c 0,-0.516 -0.119,-0.903 -0.351,-1.167 -0.233,-0.258 -0.528,-0.391 -0.888,-0.391 -0.36,0 -0.656,0.133 -0.878,0.402 -0.226,0.272 -0.338,0.654 -0.338,1.156 v 7.33 c 0,0.501 0.112,0.885 0.338,1.142 0.222,0.259 0.518,0.389 0.878,0.389 0.36,0 0.655,-0.13 0.888,-0.389 0.232,-0.257 0.351,-0.611 0.351,-1.07 m -1.214,2.652 c -0.34,0 -0.63,0.106 -0.875,0.333 -0.243,0.217 -0.366,0.531 -0.366,0.931 0,0.361 0.126,0.656 0.376,0.897 0.247,0.233 0.537,0.345 0.865,0.345 0.316,0 0.601,-0.104 0.848,-0.316 0.242,-0.212 0.366,-0.525 0.366,-0.926 0,-0.399 -0.12,-0.705 -0.359,-0.925 -0.242,-0.223 -0.526,-0.339 -0.855,-0.339"
           style="fill:#ffffff;fill-opacity:1;fill-rule:nonzero;stroke:none"
           id="path103" />
        <path
           d="m 332.769,26.058 v -0.307 c 0.426,0.592 0.901,1.029 1.411,1.306 0.514,0.28 1.101,0.422 1.773,0.422 0.644,0 1.223,-0.148 1.736,-0.447 0.505,-0.291 0.889,-0.703 1.139,-1.242 0.161,-0.314 0.264,-0.656 0.315,-1.016 0.045,-0.362 0.073,-0.824 0.073,-1.389 v -4.767 c 0,-0.516 -0.117,-0.903 -0.339,-1.167 -0.226,-0.258 -0.519,-0.391 -0.876,-0.391 -0.364,0 -0.663,0.133 -0.884,0.403 -0.229,0.271 -0.346,0.653 -0.346,1.155 v 4.268 c 0,0.847 -0.109,1.492 -0.334,1.94 -0.231,0.447 -0.678,0.672 -1.35,0.672 -0.437,0 -0.836,-0.137 -1.196,-0.412 -0.36,-0.268 -0.622,-0.643 -0.79,-1.12 -0.121,-0.379 -0.183,-1.092 -0.183,-2.143 v -3.205 c 0,-0.517 -0.113,-0.91 -0.346,-1.173 -0.232,-0.255 -0.529,-0.385 -0.893,-0.385 -0.353,0 -0.646,0.133 -0.872,0.402 -0.232,0.272 -0.343,0.654 -0.343,1.156 v 7.402 c 0,0.491 0.1,0.852 0.307,1.094 0.201,0.24 0.485,0.365 0.835,0.365 0.215,0 0.413,-0.059 0.582,-0.163 0.18,-0.104 0.315,-0.268 0.42,-0.473 0.102,-0.22 0.161,-0.477 0.161,-0.785"
           style="fill:#ffffff;fill-opacity:1;fill-rule:nonzero;stroke:none"
           id="path105" />
        <path
           d="m 343.155,25.881 1.984,-5.817 2.14,6.071 c 0.172,0.488 0.335,0.83 0.499,1.036 0.164,0.201 0.406,0.308 0.734,0.308 0.314,0 0.579,-0.113 0.801,-0.334 0.216,-0.219 0.328,-0.467 0.328,-0.761 0,-0.111 -0.023,-0.24 -0.061,-0.387 -0.036,-0.155 -0.082,-0.297 -0.135,-0.43 -0.051,-0.128 -0.104,-0.28 -0.174,-0.446 l -2.357,-6.1 c -0.066,-0.174 -0.153,-0.4 -0.256,-0.668 -0.108,-0.267 -0.225,-0.496 -0.352,-0.694 -0.131,-0.187 -0.288,-0.333 -0.475,-0.44 -0.191,-0.105 -0.422,-0.159 -0.692,-0.159 -0.347,0 -0.625,0.081 -0.832,0.246 -0.209,0.166 -0.363,0.345 -0.458,0.547 -0.099,0.194 -0.268,0.585 -0.5,1.168 l -2.34,6.033 c -0.055,0.15 -0.111,0.301 -0.17,0.449 -0.055,0.151 -0.099,0.301 -0.141,0.461 -0.036,0.159 -0.058,0.293 -0.058,0.402 0,0.178 0.05,0.351 0.155,0.522 0.101,0.174 0.244,0.318 0.423,0.424 0.181,0.108 0.372,0.167 0.585,0.167 0.405,0 0.687,-0.125 0.84,-0.374 0.154,-0.241 0.325,-0.649 0.512,-1.224"
           style="fill:#ffffff;fill-opacity:1;fill-rule:nonzero;stroke:none"
           id="path107" />
        <path
           d="m 353.198,23.098 h 4.451 c -0.058,0.875 -0.283,1.531 -0.678,1.964 -0.395,0.431 -0.911,0.649 -1.553,0.649 -0.608,0 -1.112,-0.22 -1.503,-0.659 -0.394,-0.44 -0.628,-1.092 -0.717,-1.954 m 4.805,-1.455 h -4.805 c 0.002,-0.587 0.119,-1.098 0.334,-1.547 0.223,-0.44 0.513,-0.773 0.874,-1 0.364,-0.229 0.766,-0.337 1.203,-0.337 0.292,0 0.563,0.035 0.804,0.104 0.243,0.076 0.479,0.189 0.709,0.34 0.224,0.152 0.433,0.316 0.626,0.496 0.19,0.172 0.445,0.407 0.745,0.709 0.129,0.119 0.309,0.171 0.54,0.171 0.255,0 0.458,-0.07 0.613,-0.216 0.158,-0.144 0.233,-0.345 0.233,-0.606 0,-0.234 -0.086,-0.506 -0.263,-0.818 -0.172,-0.306 -0.428,-0.604 -0.785,-0.892 -0.352,-0.282 -0.793,-0.517 -1.323,-0.709 -0.528,-0.186 -1.135,-0.278 -1.829,-0.278 -1.576,0 -2.803,0.47 -3.676,1.406 -0.873,0.943 -1.311,2.212 -1.311,3.816 0,0.768 0.111,1.464 0.324,2.11 0.215,0.649 0.529,1.204 0.942,1.666 0.415,0.466 0.922,0.824 1.529,1.067 0.608,0.247 1.277,0.371 2.018,0.371 0.952,0 1.776,-0.211 2.464,-0.637 0.686,-0.421 1.201,-0.962 1.541,-1.631 0.344,-0.671 0.513,-1.353 0.513,-2.051 0,-0.64 -0.17,-1.058 -0.529,-1.248 -0.357,-0.194 -0.849,-0.286 -1.491,-0.286"
           style="fill:#ffffff;fill-opacity:1;fill-rule:nonzero;stroke:none"
           id="path109" />
        <path
           d="m 370.899,20.232 c 0,-0.318 -0.088,-0.66 -0.275,-1.022 -0.184,-0.363 -0.459,-0.708 -0.836,-1.036 -0.374,-0.328 -0.849,-0.593 -1.42,-0.79 -0.566,-0.205 -1.211,-0.304 -1.921,-0.304 -1.52,0 -2.704,0.462 -3.553,1.382 -0.849,0.927 -1.279,2.16 -1.279,3.713 0,1.05 0.195,1.982 0.587,2.786 0.39,0.805 0.95,1.433 1.69,1.872 0.734,0.443 1.619,0.663 2.645,0.663 0.634,0 1.216,-0.099 1.75,-0.289 0.528,-0.195 0.976,-0.448 1.35,-0.751 0.368,-0.307 0.648,-0.634 0.846,-0.98 0.191,-0.348 0.29,-0.672 0.29,-0.973 0,-0.303 -0.108,-0.561 -0.333,-0.776 -0.216,-0.215 -0.481,-0.322 -0.792,-0.322 -0.206,0 -0.374,0.061 -0.504,0.17 -0.14,0.105 -0.29,0.278 -0.461,0.527 -0.299,0.472 -0.61,0.831 -0.936,1.074 -0.328,0.235 -0.743,0.359 -1.25,0.359 -0.72,0 -1.309,-0.301 -1.75,-0.89 -0.447,-0.596 -0.665,-1.405 -0.665,-2.429 0,-0.481 0.059,-0.93 0.169,-1.332 0.115,-0.404 0.281,-0.744 0.496,-1.032 0.217,-0.286 0.479,-0.5 0.785,-0.646 0.3,-0.148 0.637,-0.224 1.005,-0.224 0.49,0 0.914,0.118 1.265,0.358 0.348,0.239 0.662,0.602 0.932,1.086 0.149,0.293 0.308,0.516 0.483,0.683 0.173,0.161 0.385,0.239 0.639,0.239 0.297,0 0.549,-0.117 0.742,-0.352 0.202,-0.243 0.301,-0.495 0.301,-0.764"
           style="fill:#ffffff;fill-opacity:1;fill-rule:nonzero;stroke:none"
           id="path111" />
        <path
           d="m 373.18,27.261 h 0.271 v 1.54 c 0,0.41 0.01,0.736 0.031,0.97 0.022,0.235 0.076,0.433 0.177,0.604 0.094,0.173 0.232,0.317 0.414,0.429 0.177,0.107 0.377,0.16 0.6,0.16 0.311,0 0.594,-0.122 0.845,-0.363 0.164,-0.166 0.273,-0.363 0.319,-0.595 0.044,-0.235 0.066,-0.571 0.066,-1.001 v -1.744 h 0.903 c 0.346,0 0.611,-0.087 0.795,-0.26 0.186,-0.172 0.275,-0.39 0.275,-0.66 0,-0.344 -0.13,-0.59 -0.394,-0.723 -0.258,-0.136 -0.632,-0.207 -1.119,-0.207 h -0.46 v -4.719 c 0,-0.401 0.013,-0.708 0.039,-0.926 0.032,-0.218 0.107,-0.394 0.222,-0.525 0.114,-0.135 0.304,-0.206 0.568,-0.206 0.146,0 0.338,0.027 0.587,0.082 0.242,0.054 0.434,0.08 0.576,0.08 0.196,0 0.377,-0.087 0.533,-0.245 0.157,-0.171 0.239,-0.372 0.239,-0.617 0,-0.412 -0.211,-0.728 -0.646,-0.948 -0.436,-0.218 -1.055,-0.327 -1.862,-0.327 -0.768,0 -1.351,0.133 -1.747,0.403 -0.394,0.271 -0.657,0.639 -0.774,1.121 -0.127,0.475 -0.187,1.108 -0.187,1.905 v 4.922 h -0.329 c -0.346,0 -0.616,0.087 -0.804,0.266 -0.188,0.174 -0.279,0.394 -0.279,0.664 0,0.27 0.098,0.488 0.29,0.66 0.197,0.173 0.481,0.26 0.851,0.26"
           style="fill:#ffffff;fill-opacity:1;fill-rule:nonzero;stroke:none"
           id="path113" />
        <path
           d="m 386.287,22.264 c 0,1.04 -0.222,1.855 -0.659,2.436 -0.444,0.58 -1.032,0.875 -1.778,0.875 -0.48,0 -0.902,-0.133 -1.267,-0.391 -0.368,-0.262 -0.649,-0.644 -0.846,-1.153 -0.197,-0.501 -0.297,-1.091 -0.297,-1.767 0,-0.67 0.1,-1.255 0.295,-1.755 0.193,-0.499 0.47,-0.882 0.832,-1.152 0.363,-0.261 0.788,-0.392 1.283,-0.392 0.746,0 1.334,0.288 1.778,0.874 0.437,0.582 0.659,1.392 0.659,2.425 m 2.465,0 c 0,-0.762 -0.113,-1.464 -0.344,-2.115 -0.226,-0.637 -0.557,-1.193 -0.987,-1.658 -0.433,-0.464 -0.949,-0.808 -1.547,-1.063 -0.599,-0.247 -1.27,-0.368 -2.024,-0.368 -0.746,0 -1.414,0.121 -2.006,0.376 -0.594,0.248 -1.111,0.605 -1.541,1.072 -0.435,0.469 -0.766,1.015 -0.989,1.65 -0.223,0.639 -0.333,1.337 -0.333,2.11 0,0.775 0.11,1.485 0.333,2.127 0.236,0.646 0.557,1.195 0.983,1.656 0.428,0.453 0.943,0.807 1.547,1.053 0.61,0.247 1.277,0.375 2.006,0.375 0.746,0 1.417,-0.128 2.024,-0.378 0.606,-0.251 1.123,-0.611 1.555,-1.073 0.427,-0.462 0.763,-1.015 0.986,-1.654 0.224,-0.636 0.337,-1.342 0.337,-2.11"
           style="fill:#ffffff;fill-opacity:1;fill-rule:nonzero;stroke:none"
           id="path115" />
        <path
           d="m 393.126,20.753 v -2.135 c 0,-0.517 -0.117,-0.91 -0.352,-1.173 -0.234,-0.255 -0.531,-0.385 -0.893,-0.385 -0.35,0 -0.644,0.133 -0.87,0.391 -0.228,0.264 -0.339,0.651 -0.339,1.167 v 7.131 c 0,1.154 0.396,1.73 1.194,1.73 0.404,0 0.701,-0.141 0.882,-0.407 0.178,-0.266 0.273,-0.667 0.298,-1.191 0.292,0.524 0.594,0.925 0.903,1.191 0.31,0.266 0.72,0.407 1.232,0.407 0.521,0 1.019,-0.141 1.507,-0.407 0.483,-0.266 0.729,-0.626 0.729,-1.069 0,-0.312 -0.107,-0.575 -0.313,-0.775 -0.204,-0.202 -0.429,-0.306 -0.67,-0.306 -0.09,0 -0.308,0.059 -0.653,0.178 -0.345,0.114 -0.65,0.173 -0.915,0.173 -0.357,0 -0.65,-0.097 -0.876,-0.298 -0.228,-0.2 -0.406,-0.488 -0.532,-0.874 -0.126,-0.394 -0.217,-0.852 -0.261,-1.391 -0.047,-0.53 -0.071,-1.181 -0.071,-1.957"
           style="fill:#ffffff;fill-opacity:1;fill-rule:nonzero;stroke:none"
           id="path117" />
        <path
           d="m 406.203,20.405 c 0,-0.706 -0.165,-1.309 -0.499,-1.814 -0.331,-0.505 -0.816,-0.883 -1.461,-1.147 -0.646,-0.254 -1.429,-0.384 -2.357,-0.384 -0.874,0 -1.634,0.141 -2.265,0.422 -0.629,0.283 -1.096,0.631 -1.392,1.054 -0.302,0.42 -0.458,0.844 -0.458,1.268 0,0.281 0.101,0.524 0.296,0.723 0.191,0.202 0.435,0.301 0.725,0.301 0.259,0 0.459,-0.066 0.596,-0.196 0.14,-0.137 0.266,-0.319 0.396,-0.555 0.252,-0.461 0.551,-0.801 0.907,-1.025 0.344,-0.229 0.826,-0.34 1.435,-0.34 0.489,0 0.894,0.114 1.208,0.346 0.312,0.224 0.476,0.488 0.476,0.781 0,0.452 -0.166,0.783 -0.49,0.985 -0.332,0.211 -0.866,0.407 -1.618,0.594 -0.844,0.223 -1.533,0.451 -2.063,0.69 -0.533,0.241 -0.962,0.561 -1.277,0.955 -0.316,0.391 -0.478,0.879 -0.478,1.456 0,0.513 0.147,0.999 0.441,1.451 0.293,0.461 0.732,0.824 1.303,1.095 0.571,0.273 1.263,0.414 2.074,0.414 0.635,0 1.206,-0.075 1.715,-0.209 0.505,-0.138 0.933,-0.323 1.266,-0.553 0.339,-0.233 0.6,-0.488 0.775,-0.769 0.18,-0.286 0.268,-0.56 0.268,-0.827 0,-0.295 -0.094,-0.53 -0.286,-0.726 -0.189,-0.18 -0.461,-0.278 -0.803,-0.278 -0.254,0 -0.467,0.075 -0.646,0.23 -0.174,0.146 -0.38,0.37 -0.606,0.668 -0.186,0.252 -0.404,0.454 -0.658,0.603 -0.253,0.148 -0.595,0.224 -1.025,0.224 -0.444,0 -0.815,-0.096 -1.104,-0.296 -0.296,-0.196 -0.445,-0.443 -0.445,-0.737 0,-0.269 0.11,-0.49 0.323,-0.663 0.219,-0.172 0.507,-0.314 0.875,-0.428 0.367,-0.114 0.871,-0.252 1.512,-0.414 0.761,-0.192 1.384,-0.424 1.867,-0.695 0.483,-0.266 0.848,-0.583 1.096,-0.951 0.252,-0.37 0.377,-0.786 0.377,-1.253"
           style="fill:#ffffff;fill-opacity:1;fill-rule:nonzero;stroke:none"
           id="path119" />
        <path
           d="m 408.989,17.06 c -0.37,0 -0.691,0.121 -0.958,0.376 -0.275,0.248 -0.407,0.6 -0.407,1.047 0,0.38 0.126,0.709 0.381,0.987 0.259,0.273 0.58,0.407 0.957,0.407 0.375,0 0.699,-0.134 0.96,-0.405 0.27,-0.269 0.406,-0.605 0.406,-0.989 0,-0.445 -0.136,-0.794 -0.406,-1.044 -0.261,-0.254 -0.571,-0.379 -0.933,-0.379"
           style="fill:#ffffff;fill-opacity:1;fill-rule:nonzero;stroke:none"
           id="path121" />
        <path
           d="m 419.847,22.264 c 0,1.04 -0.222,1.855 -0.662,2.436 -0.441,0.58 -1.031,0.875 -1.774,0.875 -0.48,0 -0.898,-0.133 -1.266,-0.391 -0.368,-0.262 -0.648,-0.644 -0.844,-1.153 -0.196,-0.501 -0.297,-1.091 -0.297,-1.767 0,-0.67 0.095,-1.255 0.288,-1.755 0.201,-0.499 0.478,-0.882 0.842,-1.152 0.359,-0.261 0.787,-0.392 1.277,-0.392 0.743,0 1.333,0.288 1.774,0.874 0.44,0.582 0.662,1.392 0.662,2.425 m 2.467,0 c 0,-0.762 -0.112,-1.464 -0.344,-2.115 -0.229,-0.637 -0.557,-1.193 -0.989,-1.658 -0.433,-0.464 -0.943,-0.808 -1.546,-1.063 -0.598,-0.247 -1.272,-0.368 -2.024,-0.368 -0.743,0 -1.412,0.121 -2.006,0.376 -0.592,0.248 -1.103,0.605 -1.537,1.072 -0.44,0.469 -0.768,1.015 -0.997,1.65 -0.22,0.639 -0.333,1.337 -0.333,2.11 0,0.775 0.113,1.485 0.342,2.127 0.232,0.646 0.554,1.195 0.977,1.656 0.426,0.453 0.943,0.807 1.548,1.053 0.608,0.247 1.272,0.375 2.006,0.375 0.743,0 1.417,-0.128 2.024,-0.378 0.608,-0.251 1.125,-0.611 1.557,-1.073 0.43,-0.462 0.757,-1.015 0.985,-1.654 0.225,-0.636 0.337,-1.342 0.337,-2.11"
           style="fill:#ffffff;fill-opacity:1;fill-rule:nonzero;stroke:none"
           id="path123" />
        <path
           d="m 426.687,20.753 v -2.135 c 0,-0.517 -0.118,-0.91 -0.35,-1.173 -0.233,-0.255 -0.531,-0.385 -0.888,-0.385 -0.361,0 -0.646,0.133 -0.878,0.391 -0.227,0.264 -0.341,0.651 -0.341,1.167 v 7.131 c 0,1.154 0.405,1.73 1.199,1.73 0.408,0 0.699,-0.141 0.879,-0.407 0.176,-0.266 0.282,-0.667 0.301,-1.191 0.29,0.524 0.59,0.925 0.9,1.191 0.308,0.266 0.722,0.407 1.233,0.407 0.523,0 1.025,-0.141 1.504,-0.407 0.487,-0.266 0.732,-0.626 0.732,-1.069 0,-0.312 -0.105,-0.575 -0.309,-0.775 -0.211,-0.202 -0.43,-0.306 -0.675,-0.306 -0.087,0 -0.303,0.059 -0.649,0.178 -0.344,0.114 -0.649,0.173 -0.915,0.173 -0.358,0 -0.649,-0.097 -0.883,-0.298 -0.224,-0.2 -0.402,-0.488 -0.528,-0.874 -0.124,-0.394 -0.214,-0.852 -0.26,-1.391 -0.047,-0.53 -0.072,-1.181 -0.072,-1.957"
           style="fill:#ffffff;fill-opacity:1;fill-rule:nonzero;stroke:none"
           id="path125" />
        <path
           d="m 433.774,22.35 c 0,-1.035 0.218,-1.821 0.656,-2.357 0.431,-0.528 0.997,-0.796 1.68,-0.796 0.407,0 0.796,0.117 1.158,0.346 0.363,0.229 0.659,0.572 0.888,1.03 0.229,0.462 0.341,1.021 0.341,1.674 0,1.045 -0.223,1.859 -0.663,2.441 -0.438,0.585 -1.021,0.878 -1.737,0.878 -0.699,0 -1.264,-0.286 -1.684,-0.839 -0.427,-0.559 -0.639,-1.348 -0.639,-2.377 m 7.118,3.252 v -7.447 c 0,-0.852 -0.093,-1.584 -0.264,-2.193 -0.174,-0.619 -0.453,-1.123 -0.836,-1.524 -0.383,-0.402 -0.888,-0.696 -1.505,-0.892 -0.621,-0.188 -1.394,-0.287 -2.314,-0.287 -0.851,0 -1.607,0.119 -2.27,0.365 -0.666,0.255 -1.178,0.568 -1.537,0.961 -0.361,0.389 -0.542,0.792 -0.542,1.209 0,0.311 0.101,0.566 0.31,0.762 0.201,0.201 0.447,0.298 0.734,0.298 0.362,0 0.673,-0.166 0.947,-0.497 0.132,-0.172 0.27,-0.34 0.408,-0.511 0.139,-0.176 0.295,-0.324 0.467,-0.442 0.17,-0.126 0.379,-0.216 0.619,-0.277 0.235,-0.059 0.513,-0.088 0.827,-0.088 0.63,0 1.129,0.094 1.477,0.278 0.353,0.183 0.598,0.44 0.742,0.772 0.136,0.331 0.224,0.683 0.239,1.065 0.029,0.384 0.044,0.988 0.061,1.828 -0.377,-0.547 -0.819,-0.968 -1.309,-1.255 -0.494,-0.288 -1.085,-0.429 -1.764,-0.429 -0.827,0 -1.547,0.214 -2.156,0.656 -0.619,0.438 -1.091,1.049 -1.421,1.841 -0.326,0.784 -0.494,1.695 -0.494,2.728 0,0.775 0.098,1.469 0.304,2.089 0.197,0.616 0.482,1.139 0.858,1.565 0.368,0.427 0.801,0.748 1.285,0.966 0.489,0.211 1.015,0.324 1.602,0.324 0.693,0 1.297,-0.143 1.805,-0.423 0.515,-0.275 0.984,-0.715 1.421,-1.309 v 0.345 c 0,0.447 0.109,0.787 0.315,1.039 0.21,0.241 0.482,0.365 0.809,0.365 0.477,0 0.791,-0.16 0.949,-0.483 0.153,-0.323 0.233,-0.792 0.233,-1.399"
           style="fill:#ffffff;fill-opacity:1;fill-rule:nonzero;stroke:none"
           id="path127" />
        <path
           d="m 334.479,50.551 h 3.644 c -0.259,-1.965 -1.061,-3.497 -2.4,-4.6 -1.24,-1.078 -2.74,-1.611 -4.492,-1.611 -2.377,0 -4.274,0.834 -5.691,2.502 -1.344,1.585 -2.015,3.633 -2.015,6.136 0,2.562 0.667,4.611 1.996,6.163 1.326,1.545 3.206,2.322 5.63,2.322 1.805,0 3.332,-0.488 4.572,-1.458 1.314,-1.046 2.115,-2.517 2.4,-4.403 h -3.644 c -0.312,1.643 -1.317,2.463 -3.026,2.463 -2.813,0 -4.224,-1.667 -4.224,-5.002 0,-1.564 0.363,-2.84 1.086,-3.836 0.726,-0.998 1.745,-1.497 3.063,-1.497 1.962,0 2.997,0.941 3.101,2.821 m -14.334,2.297 c 0,-3.259 1.034,-6.018 3.098,-8.264 2.066,-2.249 4.593,-3.374 7.595,-3.374 2.989,0 5.52,1.125 7.584,3.374 2.068,2.246 3.097,5.005 3.097,8.264 0,3.257 -1.029,6.014 -3.097,8.263 -2.064,2.249 -4.595,3.375 -7.584,3.375 -3.002,0 -5.529,-1.126 -7.595,-3.375 -2.064,-2.249 -3.098,-5.006 -3.098,-8.263 m -3.699,0 c 0,4.147 1.402,7.686 4.213,10.629 2.812,2.933 6.205,4.401 10.179,4.401 3.968,0 7.356,-1.468 10.171,-4.401 2.811,-2.943 4.219,-6.482 4.219,-10.629 0,-4.15 -1.408,-7.695 -4.219,-10.628 -2.815,-2.938 -6.203,-4.408 -10.171,-4.408 -3.974,0 -7.367,1.47 -10.179,4.408 -2.811,2.933 -4.213,6.478 -4.213,10.628"
           style="fill:#ffffff;fill-opacity:1;fill-rule:nonzero;stroke:none"
           id="path129" />
        <path
           d="m 322.269,43.421 2.098,-1.78 15.436,19.819 -2.099,1.778 z"
           style="fill:#ffffff;fill-opacity:1;fill-rule:nonzero;stroke:none"
           id="path131" />
      </g>
    </g>
  </g>
</svg>
