<?xml version="1.0" encoding="UTF-8" standalone="no"?>
<!-- Created with Inkscape (http://www.inkscape.org/) -->

<svg
   width="150"
   height="450"
   viewBox="0 0 39.6875 119.0625"
   version="1.1"
   id="svg346"
   inkscape:version="1.2.1 (9c6d41e410, 2022-07-14)"
   sodipodi:docname="beach.svg"
   xmlns:inkscape="http://www.inkscape.org/namespaces/inkscape"
   xmlns:sodipodi="http://sodipodi.sourceforge.net/DTD/sodipodi-0.dtd"
   xmlns="http://www.w3.org/2000/svg"
   xmlns:svg="http://www.w3.org/2000/svg">
  <sodipodi:namedview
     id="namedview348"
     pagecolor="#ffffff"
     bordercolor="#000000"
     borderopacity="0.25"
     inkscape:showpageshadow="2"
     inkscape:pageopacity="0.0"
     inkscape:pagecheckerboard="0"
     inkscape:deskcolor="#d1d1d1"
     inkscape:document-units="mm"
     showgrid="false"
     inkscape:zoom="1.0544998"
     inkscape:cx="164.05883"
     inkscape:cy="249.88151"
     inkscape:window-width="958"
     inkscape:window-height="1008"
     inkscape:window-x="953"
     inkscape:window-y="0"
     inkscape:window-maximized="0"
     inkscape:current-layer="layer1" />
  <defs
     id="defs343">
    <clipPath
       clipPathUnits="userSpaceOnUse"
       id="clipPath31">
      <path
         d="M 0,660 H 660 V 0 H 0 Z"
         id="path29" />
    </clipPath>
    <clipPath
       clipPathUnits="userSpaceOnUse"
       id="clipPath9364">
      <path
         d="M 0,660 H 660 V 0 H 0 Z"
         id="path9362" />
    </clipPath>
  </defs>
  <g
     inkscape:label="Ebene 1"
     inkscape:groupmode="layer"
     id="layer1">
    <g
       id="g9358"
       transform="matrix(0.19981194,0,0,-0.19981194,-82.29313,126.84315)">
      <g
         id="g9360"
         clip-path="url(#clipPath9364)">
        <path
           d="M 0.602,0.527 H 660 V 659.925 H 0.602 Z"
           style="fill:#93dcf7;fill-opacity:1;fill-rule:evenodd;stroke:none"
           id="path9366" />
        <path
           d="M 0.603,527.642 V 173.885 L 660,99.376 v 376.835 c -31.873,19.536 -72.012,19.536 -103.885,0 -23.219,-14.231 -51.264,-18.298 -77.57,-11.249 -26.307,7.048 -48.562,24.594 -61.554,48.528 -11.729,21.607 -34.342,35.062 -58.927,35.062 -24.585,0 -47.199,-13.455 -58.928,-35.062 -9.887,-18.216 -26.826,-31.569 -46.844,-36.932 -20.021,-5.366 -41.365,-2.27 -59.036,8.561 -31.261,19.161 -70.63,19.161 -101.891,0 -12.585,-7.714 -27.786,-9.919 -42.044,-6.098 -14.258,3.82 -26.32,13.331 -33.362,26.304 -4.391,8.088 -9.555,15.545 -15.356,22.317"
           style="fill:#cfeff6;fill-opacity:1;fill-rule:evenodd;stroke:none"
           id="path9368" />
        <path
           d="M 660,393.991 V 155.348 L 0.602,133.47 v 287.697 c 18.91,5.043 38.665,6.721 58.36,4.84 32.809,-3.133 64.519,-13.53 92.847,-30.443 32.754,-19.553 74.973,-10.611 97.067,20.563 15.51,21.883 41.099,34.269 67.812,32.823 26.712,-1.445 50.829,-16.523 63.904,-39.953 12.141,-21.755 34.532,-35.755 59.336,-37.097 24.801,-1.342 48.562,10.159 62.963,30.477 18.882,26.642 54.964,34.286 82.958,17.573 2.503,-1.493 5.031,-2.927 7.584,-4.299 20.971,-11.278 43.531,-18.517 66.567,-21.66"
           style="fill:#51b5e2;fill-opacity:1;fill-rule:evenodd;stroke:none"
           id="path9370" />
        <path
           d="M 660,360.409 V 199.779 L 0.602,185.055 v 193.647 c 18.91,3.394 38.665,4.525 58.36,3.259 32.809,-2.109 64.519,-9.107 92.847,-20.491 32.754,-13.164 74.973,-7.142 97.067,13.84 15.51,14.73 41.099,23.066 67.812,22.095 26.712,-0.976 50.829,-11.122 63.904,-26.893 12.141,-14.645 34.532,-24.067 59.336,-24.971 24.801,-0.903 48.562,6.837 62.963,20.514 18.882,17.933 54.964,23.077 82.958,11.829 2.503,-1.006 5.031,-1.972 7.584,-2.894 20.971,-7.592 43.531,-12.465 66.567,-14.581"
           style="fill:#3e94c4;fill-opacity:1;fill-rule:evenodd;stroke:none"
           id="path9372" />
        <path
           d="M 0.602,0.527 H 660 V 330.226 H 0.602 Z"
           style="fill:#6dd0f6;fill-opacity:1;fill-rule:evenodd;stroke:none"
           id="path9374" />
        <path
           d="m 67.078,162.246 c 23.423,0 42.413,-5.633 42.413,-12.581 0,-6.949 -18.99,-12.582 -42.413,-12.582 -23.424,0 -42.413,5.633 -42.413,12.582 0,6.948 18.989,12.581 42.413,12.581 M 420.521,285.4 c 35.635,0 64.52,-5.753 64.52,-12.85 0,-7.097 -28.885,-12.849 -64.52,-12.849 -35.631,0 -64.516,5.752 -64.516,12.849 0,7.097 28.885,12.85 64.516,12.85 M 192.514,217.601 c -19.632,0 -35.548,-4.859 -35.548,-10.852 0,-5.992 15.916,-10.852 35.548,-10.852 19.632,0 35.548,4.86 35.548,10.852 0,5.993 -15.916,10.852 -35.548,10.852 M 0.602,195.897 V 308.82 h 90.771 c 4.959,-0.011 9.92,-0.026 14.88,-0.04 32.936,-0.094 63.202,-3.771 79.672,-9.68 16.469,-5.908 16.713,-13.177 0.641,-19.132 -11.039,-4.09 -10.871,-9.082 0.44,-13.142 11.311,-4.058 32.098,-6.582 54.719,-6.648 30.275,-0.087 57.112,-4.056 67.337,-9.96 10.225,-5.904 1.689,-12.499 -21.417,-16.554 -23.104,-4.055 -55.927,-4.713 -82.356,-1.652 -24.101,2.791 -54.217,1.925 -73.74,-2.119 -19.523,-4.044 -23.701,-10.283 -10.229,-15.275 10.367,-3.841 10.209,-8.529 -0.415,-12.34 -10.623,-3.81 -30.145,-6.183 -51.39,-6.245 -22.969,-0.066 -45.941,-0.11 -68.913,-0.136"
           style="fill:#5bc4f0;fill-opacity:1;fill-rule:evenodd;stroke:none"
           id="path9376" />
        <path
           d="M 660,323.964 V 0.527 H 0.602 V 67.57 c 7.155,0.392 14.368,0.591 21.618,0.591 96.949,0 186.535,29.251 235.008,76.737 35.038,34.323 99.792,55.467 169.867,55.467 61.313,0 111.017,28.109 111.017,62.787 0,33.585 48.141,60.812 107.525,60.812 z"
           style="fill:#8edaf6;fill-opacity:1;fill-rule:evenodd;stroke:none"
           id="path9378" />
        <path
           d="M 660,316.122 V 0.527 H 160.044 c 80.412,15.989 150.087,53.744 184.538,100.457 26.089,35.376 80.123,63.646 141.749,74.159 53.92,9.2 93.762,41.324 88.988,71.753 -4.578,29.185 33.228,59.978 84.681,69.226"
           style="fill:#ffffff;fill-opacity:1;fill-rule:evenodd;stroke:none"
           id="path9380" />
        <path
           d="M 660,310.467 V 0.527 H 350.299 c 2.748,4.306 5.34,8.661 7.753,13.059 26.089,47.558 80.123,88.223 141.749,106.678 53.918,16.146 93.762,60.628 88.988,99.353 -4.168,33.821 26.799,72.169 71.211,90.85"
           style="fill:#fdf7b7;fill-opacity:1;fill-rule:evenodd;stroke:none"
           id="path9382" />
        <path
           d="m 389.795,0.527 c 12.717,30.761 60.411,53.625 117.314,53.625 56.905,0 104.599,-22.864 117.316,-53.625 z"
           style="fill:#e6dd85;fill-opacity:1;fill-rule:evenodd;stroke:none"
           id="path9384" />
        <path
           d="m 541.502,508.598 c 31.098,0 56.462,25.363 56.462,56.462 0,31.098 -25.364,56.461 -56.462,56.461 -31.099,0 -56.461,-25.363 -56.461,-56.461 0,-31.099 25.362,-56.462 56.461,-56.462"
           style="fill:#ffffff;fill-opacity:1;fill-rule:evenodd;stroke:none"
           id="path9386" />
        <path
           d="m 596.642,78.537 -38.436,-64.148 20.484,0.133 24.458,61.406 z"
           style="fill:#e6dd85;fill-opacity:1;fill-rule:evenodd;stroke:none"
           id="path9388" />
        <path
           d="M 350.299,589.011 H 70.054 l 7.815,3.397 c 8.509,3.7 16.57,8.355 24.029,13.873 18.806,13.916 44.495,13.916 63.3,0 16.253,-12.025 38.454,-12.025 54.707,0 27.458,20.319 64.967,20.319 92.427,0 12.017,-8.893 23.447,-13.977 37.967,-17.27"
           style="fill:#ffffff;fill-opacity:1;fill-rule:evenodd;stroke:none"
           id="path9390" />
        <path
           d="M 493.482,149.823 597.83,74.246 c 3.941,-2.852 8.928,4.525 5.004,7.312 l -104.109,73.937 z"
           style="fill:#463d3b;fill-opacity:1;fill-rule:evenodd;stroke:none"
           id="path9392" />
        <path
           d="M 388.15,502.648 H 172.845 l 6.005,2.61 c 6.537,2.844 12.73,6.419 18.461,10.659 14.447,10.691 34.183,10.691 48.631,0 12.487,-9.24 29.543,-9.24 42.031,0 21.094,15.609 49.913,15.609 71.007,0 9.235,-6.833 18.016,-10.738 29.17,-13.269"
           style="fill:#ffffff;fill-opacity:1;fill-rule:evenodd;stroke:none"
           id="path9394" />
        <path
           d="m 487.776,250.601 c -56.873,-15.117 -102.226,-74.009 -101.3,-131.538 0.925,-57.53 47.779,-91.913 104.652,-76.795 56.871,15.116 102.226,74.009 101.301,131.539 -0.926,57.529 -47.782,91.912 -104.653,76.794"
           style="fill:#ffffff;fill-opacity:1;fill-rule:evenodd;stroke:none"
           id="path9396" />
        <path
           d="m 431.612,218.567 c -11.961,-11.243 -22.114,-24.518 -29.743,-38.911 17.851,-7.124 38.532,-10.573 60.983,-11.723 42.904,0.767 85.738,-1.737 128.4,-12.027 0.863,5.948 1.272,11.931 1.177,17.901 -0.152,9.411 -1.54,18.198 -3.992,26.256 -39.765,-4.37 -81.998,-16.197 -125.585,-32.13 -9.411,18.006 -19.767,34.947 -31.24,50.634 m 56.164,32.034 c -9.301,-2.471 -18.291,-6.12 -26.822,-10.736 -2.66,-23.816 -1.306,-47.83 1.898,-71.932 -25.322,-30.106 -47.817,-61.253 -63.302,-94.974 7.313,-11.434 17.388,-20.384 29.412,-26.265 5.686,42.394 17.558,82.606 33.89,121.239 11.608,-44.248 27.8,-83.145 46.407,-119.224 -5.877,-2.629 -11.936,-4.795 -18.131,-6.441 -8.976,-2.387 -17.698,-3.537 -26.033,-3.56 -5.145,41.054 -5.924,84.113 -2.243,129.225 34.183,25.655 70.507,45.9 108.217,62.65 -8.78,9.378 -19.889,16.243 -32.596,20.074 -25.46,-23.759 -50.668,-51.313 -75.621,-82.724 -26.331,-17.404 -51.581,-37.807 -75.21,-62.705 -0.69,4.442 -1.09,9.057 -1.166,13.835 -0.152,9.402 0.939,18.839 3.109,28.116 24.373,9.999 48.809,16.123 73.267,20.754 40.932,-11.818 78.827,-30.526 114.98,-53.181 -7.98,-15.508 -18.888,-29.777 -31.848,-41.668 -29.497,29.504 -57.62,60.634 -83.132,94.849 9.663,28.737 22.972,57.229 39.544,85.502 -4.783,-0.581 -9.663,-1.517 -14.62,-2.834"
           style="fill:#f68413;fill-opacity:1;fill-rule:evenodd;stroke:none"
           id="path9398" />
        <path
           d="m 232.137,27.563 c 0,0.655 -0.094,1.219 -0.289,1.684 -0.188,0.471 -0.453,0.831 -0.795,1.087 -0.34,0.249 -0.713,0.376 -1.128,0.376 -0.654,0 -1.206,-0.275 -1.657,-0.81 -0.452,-0.544 -0.676,-1.333 -0.676,-2.381 0,-0.988 0.224,-1.754 0.67,-2.297 0.448,-0.549 1.004,-0.827 1.663,-0.827 0.395,0 0.762,0.12 1.099,0.363 0.333,0.238 0.605,0.596 0.808,1.071 0.205,0.482 0.305,1.058 0.305,1.734 m -4.656,3.61 v -0.298 c 0.447,0.573 0.91,1 1.39,1.266 0.483,0.27 1.031,0.407 1.641,0.407 0.728,0 1.402,-0.199 2.017,-0.593 0.614,-0.392 1.099,-0.965 1.457,-1.724 0.357,-0.758 0.534,-1.652 0.534,-2.688 0,-0.762 -0.1,-1.469 -0.307,-2.1 -0.205,-0.64 -0.488,-1.178 -0.849,-1.611 -0.36,-0.433 -0.786,-0.768 -1.274,-0.997 -0.492,-0.236 -1.02,-0.352 -1.578,-0.352 -0.683,0 -1.253,0.141 -1.714,0.426 -0.464,0.284 -0.901,0.699 -1.317,1.252 v -3.719 c 0,-1.092 -0.38,-1.634 -1.139,-1.634 -0.447,0 -0.744,0.137 -0.886,0.419 -0.145,0.282 -0.218,0.692 -0.218,1.231 v 10.699 c 0,0.472 0.096,0.826 0.295,1.058 0.199,0.231 0.468,0.351 0.809,0.351 0.336,0 0.611,-0.12 0.822,-0.361 0.211,-0.242 0.317,-0.586 0.317,-1.032"
           style="fill:#5bc4f0;fill-opacity:1;fill-rule:nonzero;stroke:none"
           id="path9400" />
        <path
           d="m 242.6,23.885 v 0.313 c -0.287,-0.375 -0.584,-0.687 -0.9,-0.939 -0.313,-0.26 -0.655,-0.447 -1.024,-0.571 -0.373,-0.122 -0.797,-0.184 -1.272,-0.184 -0.573,0 -1.088,0.125 -1.543,0.37 -0.457,0.248 -0.808,0.591 -1.056,1.025 -0.299,0.529 -0.446,1.286 -0.446,2.268 v 4.914 c 0,0.492 0.108,0.865 0.324,1.108 0.213,0.246 0.497,0.371 0.85,0.371 0.362,0 0.651,-0.125 0.871,-0.375 0.22,-0.248 0.33,-0.619 0.33,-1.104 V 27.11 c 0,-0.572 0.047,-1.054 0.135,-1.442 0.098,-0.394 0.263,-0.699 0.508,-0.922 0.236,-0.22 0.562,-0.328 0.974,-0.328 0.404,0 0.782,0.125 1.131,0.372 0.358,0.246 0.616,0.569 0.777,0.968 0.136,0.353 0.2,1.12 0.2,2.307 v 3.016 c 0,0.485 0.109,0.856 0.331,1.104 0.219,0.25 0.505,0.375 0.858,0.375 0.356,0 0.639,-0.125 0.853,-0.371 0.214,-0.243 0.319,-0.616 0.319,-1.108 v -7.182 c 0,-0.471 -0.099,-0.827 -0.307,-1.06 -0.202,-0.238 -0.468,-0.354 -0.794,-0.354 -0.323,0 -0.591,0.125 -0.803,0.366 -0.211,0.248 -0.316,0.587 -0.316,1.034"
           style="fill:#5bc4f0;fill-opacity:1;fill-rule:nonzero;stroke:none"
           id="path9402" />
        <path
           d="m 249.488,27.464 c 0,-0.986 0.215,-1.741 0.645,-2.274 0.433,-0.527 1,-0.795 1.703,-0.795 0.6,0 1.111,0.273 1.547,0.814 0.433,0.542 0.647,1.314 0.647,2.326 0,0.66 -0.09,1.222 -0.268,1.692 -0.182,0.474 -0.44,0.838 -0.766,1.094 -0.336,0.257 -0.718,0.389 -1.16,0.389 -0.455,0 -0.854,-0.132 -1.209,-0.389 -0.356,-0.256 -0.632,-0.63 -0.836,-1.117 -0.203,-0.483 -0.303,-1.062 -0.303,-1.74 m -0.113,7.368 v -3.788 c 0.441,0.488 0.899,0.855 1.363,1.118 0.464,0.256 1.04,0.386 1.725,0.386 0.787,0 1.477,-0.199 2.074,-0.585 0.593,-0.397 1.057,-0.959 1.383,-1.699 0.33,-0.743 0.492,-1.62 0.492,-2.638 0,-0.753 -0.091,-1.44 -0.271,-2.069 -0.185,-0.625 -0.449,-1.166 -0.796,-1.63 -0.351,-0.458 -0.773,-0.81 -1.268,-1.07 -0.497,-0.247 -1.044,-0.374 -1.639,-0.374 -0.366,0 -0.709,0.046 -1.034,0.137 -0.323,0.09 -0.597,0.208 -0.82,0.36 -0.229,0.142 -0.421,0.299 -0.58,0.454 -0.16,0.16 -0.368,0.393 -0.629,0.709 v -0.244 c 0,-0.467 -0.109,-0.819 -0.325,-1.06 -0.213,-0.238 -0.487,-0.356 -0.816,-0.356 -0.338,0 -0.603,0.118 -0.806,0.356 -0.199,0.246 -0.299,0.595 -0.299,1.06 v 10.825 c 0,0.499 0.098,0.879 0.293,1.135 0.193,0.26 0.462,0.387 0.812,0.387 0.363,0 0.647,-0.123 0.842,-0.37 0.199,-0.243 0.299,-0.59 0.299,-1.044"
           style="fill:#5bc4f0;fill-opacity:1;fill-rule:nonzero;stroke:none"
           id="path9404" />
        <path
           d="m 258.088,23.992 v 10.747 c 0,0.498 0.105,0.871 0.316,1.127 0.213,0.253 0.498,0.38 0.858,0.38 0.359,0 0.648,-0.125 0.871,-0.377 0.217,-0.25 0.329,-0.63 0.329,-1.13 V 23.992 c 0,-0.503 -0.114,-0.882 -0.335,-1.135 -0.223,-0.247 -0.512,-0.374 -0.865,-0.374 -0.348,0 -0.628,0.13 -0.847,0.391 -0.219,0.262 -0.327,0.632 -0.327,1.118"
           style="fill:#5bc4f0;fill-opacity:1;fill-rule:nonzero;stroke:none"
           id="path9406" />
        <path
           d="m 265.289,31.15 v -7.158 c 0,-0.5 -0.115,-0.875 -0.337,-1.129 -0.227,-0.25 -0.516,-0.38 -0.862,-0.38 -0.349,0 -0.631,0.13 -0.848,0.389 -0.217,0.264 -0.327,0.634 -0.327,1.12 v 7.089 c 0,0.485 0.11,0.856 0.327,1.104 0.217,0.25 0.499,0.375 0.848,0.375 0.346,0 0.635,-0.125 0.862,-0.375 0.222,-0.248 0.337,-0.592 0.337,-1.035 m -1.176,2.564 c -0.328,0 -0.61,0.104 -0.849,0.322 -0.229,0.21 -0.349,0.514 -0.349,0.901 0,0.349 0.12,0.635 0.361,0.867 0.239,0.227 0.519,0.335 0.837,0.335 0.309,0 0.582,-0.101 0.821,-0.305 0.235,-0.205 0.355,-0.509 0.355,-0.897 0,-0.384 -0.117,-0.681 -0.348,-0.894 -0.232,-0.216 -0.506,-0.329 -0.828,-0.329"
           style="fill:#5bc4f0;fill-opacity:1;fill-rule:nonzero;stroke:none"
           id="path9408" />
        <path
           d="m 276.249,25.552 c 0,-0.308 -0.087,-0.639 -0.263,-0.989 -0.18,-0.351 -0.449,-0.684 -0.812,-1.001 -0.361,-0.318 -0.819,-0.575 -1.368,-0.766 -0.55,-0.197 -1.173,-0.292 -1.861,-0.292 -1.468,0 -2.613,0.446 -3.437,1.338 -0.823,0.893 -1.235,2.087 -1.235,3.589 0,1.015 0.188,1.918 0.563,2.696 0.377,0.777 0.926,1.385 1.637,1.81 0.711,0.428 1.565,0.641 2.554,0.641 0.618,0 1.183,-0.096 1.696,-0.28 0.513,-0.19 0.948,-0.433 1.302,-0.727 0.358,-0.297 0.629,-0.613 0.821,-0.949 0.191,-0.335 0.281,-0.648 0.281,-0.939 0,-0.293 -0.107,-0.543 -0.316,-0.752 -0.213,-0.206 -0.467,-0.31 -0.77,-0.31 -0.199,0 -0.362,0.058 -0.494,0.163 -0.127,0.103 -0.276,0.27 -0.438,0.51 -0.291,0.458 -0.593,0.806 -0.91,1.04 -0.316,0.229 -0.719,0.347 -1.201,0.347 -0.705,0 -1.271,-0.29 -1.7,-0.862 -0.429,-0.576 -0.642,-1.356 -0.642,-2.349 0,-0.465 0.056,-0.898 0.165,-1.286 0.111,-0.392 0.271,-0.722 0.477,-0.999 0.21,-0.277 0.46,-0.485 0.759,-0.625 0.295,-0.145 0.62,-0.216 0.97,-0.216 0.48,0 0.885,0.113 1.224,0.344 0.341,0.233 0.642,0.583 0.899,1.051 0.149,0.284 0.304,0.5 0.473,0.66 0.169,0.158 0.375,0.232 0.617,0.232 0.29,0 0.531,-0.111 0.724,-0.341 0.187,-0.234 0.285,-0.477 0.285,-0.738"
           style="fill:#5bc4f0;fill-opacity:1;fill-rule:nonzero;stroke:none"
           id="path9410" />
        <path
           d="m 280.161,27.535 c 0,-0.671 0.1,-1.24 0.3,-1.715 0.2,-0.472 0.471,-0.824 0.817,-1.062 0.352,-0.243 0.731,-0.363 1.139,-0.363 0.42,0 0.801,0.116 1.145,0.34 0.345,0.229 0.619,0.578 0.828,1.046 0.205,0.468 0.306,1.055 0.306,1.754 0,0.664 -0.101,1.229 -0.306,1.705 -0.209,0.478 -0.485,0.838 -0.836,1.094 -0.351,0.249 -0.735,0.376 -1.151,0.376 -0.433,0 -0.821,-0.132 -1.166,-0.389 -0.339,-0.256 -0.606,-0.627 -0.794,-1.108 -0.187,-0.484 -0.282,-1.036 -0.282,-1.678 m 4.666,-3.636 v 0.244 c -0.317,-0.382 -0.633,-0.691 -0.945,-0.928 -0.307,-0.241 -0.645,-0.422 -1.007,-0.547 -0.36,-0.12 -0.759,-0.185 -1.187,-0.185 -0.566,0 -1.095,0.127 -1.578,0.374 -0.482,0.26 -0.902,0.614 -1.255,1.08 -0.353,0.464 -0.621,1.013 -0.806,1.645 -0.184,0.627 -0.274,1.308 -0.274,2.044 0,1.546 0.364,2.759 1.087,3.624 0.727,0.865 1.68,1.298 2.862,1.298 0.684,0 1.262,-0.125 1.73,-0.375 0.469,-0.24 0.928,-0.618 1.373,-1.129 v 3.659 c 0,0.509 0.098,0.893 0.293,1.152 0.193,0.261 0.468,0.391 0.828,0.391 0.36,0 0.635,-0.12 0.832,-0.356 0.195,-0.239 0.294,-0.593 0.294,-1.058 V 23.899 c 0,-0.471 -0.106,-0.827 -0.315,-1.06 -0.209,-0.238 -0.479,-0.356 -0.811,-0.356 -0.32,0 -0.592,0.122 -0.804,0.368 -0.211,0.243 -0.317,0.59 -0.317,1.048"
           style="fill:#5bc4f0;fill-opacity:1;fill-rule:nonzero;stroke:none"
           id="path9412" />
        <path
           d="m 295.963,27.517 c 0,1.006 -0.215,1.796 -0.642,2.358 -0.425,0.56 -1,0.845 -1.717,0.845 -0.466,0 -0.873,-0.128 -1.228,-0.378 -0.352,-0.254 -0.625,-0.624 -0.815,-1.115 -0.193,-0.486 -0.289,-1.055 -0.289,-1.71 0,-0.649 0.096,-1.213 0.284,-1.697 0.188,-0.483 0.458,-0.854 0.81,-1.113 0.348,-0.255 0.766,-0.382 1.238,-0.382 0.717,0 1.292,0.28 1.717,0.847 0.427,0.562 0.642,1.348 0.642,2.345 m 2.382,0 c 0,-0.736 -0.111,-1.416 -0.33,-2.044 -0.221,-0.618 -0.538,-1.156 -0.955,-1.604 -0.419,-0.449 -0.918,-0.784 -1.498,-1.03 -0.581,-0.238 -1.237,-0.356 -1.958,-0.356 -0.718,0 -1.364,0.118 -1.939,0.364 -0.574,0.24 -1.071,0.587 -1.493,1.038 -0.419,0.452 -0.737,0.981 -0.958,1.594 -0.217,0.62 -0.323,1.294 -0.323,2.042 0,0.75 0.11,1.435 0.329,2.057 0.221,0.625 0.536,1.155 0.947,1.601 0.413,0.44 0.91,0.781 1.498,1.019 0.588,0.239 1.231,0.362 1.939,0.362 0.72,0 1.374,-0.123 1.958,-0.366 0.584,-0.241 1.085,-0.589 1.503,-1.037 0.418,-0.447 0.736,-0.981 0.951,-1.599 0.222,-0.616 0.329,-1.298 0.329,-2.041"
           style="fill:#5bc4f0;fill-opacity:1;fill-rule:nonzero;stroke:none"
           id="path9414" />
        <path
           d="m 308.374,29.563 c -0.178,-0.419 -0.264,-1.158 -0.264,-2.222 v -3.293 c 0,-0.519 -0.111,-0.912 -0.339,-1.174 -0.225,-0.261 -0.526,-0.391 -0.897,-0.391 -0.357,0 -0.647,0.13 -0.869,0.391 -0.224,0.262 -0.334,0.655 -0.334,1.174 V 28 c 0,0.621 -0.024,1.104 -0.065,1.454 -0.041,0.342 -0.15,0.627 -0.329,0.849 -0.176,0.221 -0.464,0.333 -0.85,0.333 -0.776,0 -1.285,-0.28 -1.535,-0.84 -0.247,-0.556 -0.368,-1.356 -0.368,-2.398 v -3.35 c 0,-0.517 -0.113,-0.908 -0.334,-1.166 -0.224,-0.269 -0.519,-0.399 -0.88,-0.399 -0.362,0 -0.66,0.13 -0.886,0.399 -0.231,0.258 -0.341,0.649 -0.341,1.163 v 7.094 c 0,0.466 0.099,0.821 0.303,1.061 0.209,0.241 0.478,0.366 0.816,0.366 0.324,0 0.596,-0.113 0.813,-0.339 0.217,-0.228 0.326,-0.54 0.326,-0.941 v -0.235 c 0.41,0.515 0.852,0.893 1.32,1.134 0.469,0.241 0.996,0.363 1.567,0.363 0.596,0 1.105,-0.125 1.536,-0.375 0.43,-0.245 0.782,-0.622 1.059,-1.122 0.401,0.504 0.83,0.886 1.289,1.129 0.459,0.246 0.965,0.368 1.521,0.368 0.654,0 1.211,-0.13 1.68,-0.401 0.47,-0.266 0.82,-0.645 1.052,-1.143 0.205,-0.448 0.305,-1.152 0.305,-2.117 v -4.839 c 0,-0.519 -0.113,-0.912 -0.336,-1.174 -0.23,-0.261 -0.527,-0.391 -0.898,-0.391 -0.36,0 -0.655,0.13 -0.881,0.399 -0.233,0.258 -0.348,0.649 -0.348,1.166 v 4.17 c 0,0.532 -0.021,0.958 -0.064,1.279 -0.043,0.325 -0.161,0.591 -0.354,0.809 -0.189,0.218 -0.483,0.33 -0.868,0.33 -0.313,0 -0.611,-0.099 -0.889,-0.288 -0.287,-0.198 -0.5,-0.457 -0.658,-0.785"
           style="fill:#5bc4f0;fill-opacity:1;fill-rule:nonzero;stroke:none"
           id="path9416" />
        <path
           d="m 321.822,27.47 c -0.349,-0.136 -0.855,-0.275 -1.519,-0.425 -0.664,-0.149 -1.125,-0.255 -1.381,-0.327 -0.256,-0.072 -0.498,-0.205 -0.729,-0.407 -0.234,-0.208 -0.349,-0.491 -0.349,-0.854 0,-0.378 0.136,-0.696 0.408,-0.958 0.273,-0.267 0.631,-0.396 1.072,-0.396 0.469,0 0.905,0.109 1.301,0.325 0.396,0.212 0.689,0.493 0.873,0.83 0.215,0.375 0.324,0.991 0.324,1.858 z m 0.155,-3.591 c -0.577,-0.466 -1.131,-0.815 -1.666,-1.044 -0.536,-0.236 -1.139,-0.352 -1.803,-0.352 -0.613,0 -1.145,0.127 -1.608,0.374 -0.462,0.253 -0.816,0.595 -1.066,1.028 -0.248,0.428 -0.375,0.891 -0.375,1.395 0,0.679 0.211,1.255 0.621,1.735 0.408,0.473 0.975,0.796 1.691,0.961 0.153,0.036 0.528,0.115 1.124,0.242 0.601,0.13 1.109,0.245 1.541,0.349 0.423,0.105 0.888,0.234 1.386,0.384 -0.031,0.657 -0.156,1.137 -0.379,1.447 -0.224,0.303 -0.689,0.454 -1.388,0.454 -0.606,0 -1.057,-0.085 -1.366,-0.262 -0.302,-0.173 -0.564,-0.44 -0.779,-0.794 -0.221,-0.35 -0.371,-0.581 -0.461,-0.693 -0.092,-0.114 -0.285,-0.165 -0.578,-0.165 -0.269,0 -0.498,0.087 -0.689,0.264 -0.198,0.18 -0.295,0.406 -0.295,0.689 0,0.435 0.148,0.861 0.443,1.266 0.297,0.414 0.758,0.752 1.383,1.023 0.627,0.266 1.408,0.398 2.342,0.398 1.043,0 1.863,-0.132 2.465,-0.389 0.595,-0.252 1.013,-0.657 1.261,-1.219 0.248,-0.553 0.371,-1.294 0.371,-2.213 0,-0.58 0,-1.078 -0.004,-1.481 -0.005,-0.408 -0.007,-0.859 -0.013,-1.354 0,-0.465 0.074,-0.953 0.222,-1.455 0.145,-0.505 0.219,-0.832 0.219,-0.975 0,-0.255 -0.117,-0.488 -0.344,-0.696 -0.224,-0.207 -0.486,-0.313 -0.775,-0.313 -0.246,0 -0.482,0.118 -0.725,0.356 -0.236,0.241 -0.488,0.589 -0.755,1.04"
           style="fill:#5bc4f0;fill-opacity:1;fill-rule:nonzero;stroke:none"
           id="path9418" />
        <path
           d="m 328.939,31.15 v -7.158 c 0,-0.5 -0.115,-0.875 -0.337,-1.129 -0.227,-0.25 -0.512,-0.38 -0.86,-0.38 -0.347,0 -0.635,0.13 -0.849,0.389 -0.219,0.264 -0.329,0.634 -0.329,1.12 v 7.089 c 0,0.485 0.11,0.856 0.329,1.104 0.214,0.25 0.502,0.375 0.849,0.375 0.348,0 0.633,-0.125 0.86,-0.375 0.222,-0.248 0.337,-0.592 0.337,-1.035 m -1.173,2.564 c -0.328,0 -0.61,0.104 -0.846,0.322 -0.234,0.21 -0.356,0.514 -0.356,0.901 0,0.349 0.124,0.635 0.366,0.867 0.238,0.227 0.519,0.335 0.836,0.335 0.306,0 0.582,-0.101 0.82,-0.305 0.234,-0.205 0.353,-0.509 0.353,-0.897 0,-0.384 -0.115,-0.681 -0.347,-0.894 -0.233,-0.216 -0.508,-0.329 -0.826,-0.329"
           style="fill:#5bc4f0;fill-opacity:1;fill-rule:nonzero;stroke:none"
           id="path9420" />
        <path
           d="m 333.553,31.187 v -0.296 c 0.414,0.572 0.871,0.995 1.363,1.263 0.498,0.269 1.066,0.406 1.715,0.406 0.623,0 1.183,-0.142 1.68,-0.431 0.488,-0.282 0.859,-0.681 1.101,-1.201 0.156,-0.306 0.256,-0.635 0.305,-0.984 0.043,-0.349 0.07,-0.797 0.07,-1.342 v -4.61 c 0,-0.5 -0.113,-0.875 -0.328,-1.129 -0.217,-0.25 -0.502,-0.38 -0.848,-0.38 -0.351,0 -0.64,0.13 -0.853,0.391 -0.223,0.262 -0.336,0.632 -0.336,1.118 v 4.126 c 0,0.821 -0.106,1.445 -0.322,1.877 -0.223,0.433 -0.657,0.651 -1.307,0.651 -0.422,0 -0.807,-0.132 -1.154,-0.398 -0.348,-0.26 -0.604,-0.623 -0.764,-1.084 -0.117,-0.368 -0.178,-1.057 -0.178,-2.073 v -3.099 c 0,-0.503 -0.109,-0.882 -0.334,-1.135 -0.224,-0.247 -0.511,-0.374 -0.865,-0.374 -0.34,0 -0.623,0.13 -0.842,0.389 -0.224,0.264 -0.332,0.634 -0.332,1.12 v 7.158 c 0,0.474 0.098,0.824 0.297,1.058 0.193,0.233 0.469,0.352 0.809,0.352 0.207,0 0.398,-0.056 0.562,-0.157 0.174,-0.1 0.305,-0.259 0.406,-0.459 0.098,-0.211 0.155,-0.461 0.155,-0.757"
           style="fill:#5bc4f0;fill-opacity:1;fill-rule:nonzero;stroke:none"
           id="path9422" />
        <path
           d="m 343.598,31.016 1.918,-5.626 2.07,5.872 c 0.166,0.471 0.324,0.802 0.482,1.002 0.161,0.194 0.393,0.296 0.711,0.296 0.303,0 0.559,-0.107 0.776,-0.323 0.207,-0.21 0.314,-0.451 0.314,-0.735 0,-0.108 -0.021,-0.233 -0.058,-0.374 -0.036,-0.149 -0.079,-0.286 -0.129,-0.415 -0.051,-0.123 -0.102,-0.272 -0.17,-0.433 l -2.28,-5.899 c -0.064,-0.169 -0.148,-0.387 -0.248,-0.648 -0.103,-0.257 -0.216,-0.477 -0.339,-0.669 -0.127,-0.181 -0.28,-0.322 -0.459,-0.425 -0.186,-0.103 -0.409,-0.156 -0.67,-0.156 -0.336,0 -0.604,0.08 -0.805,0.239 -0.201,0.161 -0.35,0.335 -0.443,0.529 -0.094,0.187 -0.258,0.565 -0.483,1.13 l -2.264,5.835 c -0.052,0.144 -0.107,0.291 -0.164,0.434 -0.052,0.146 -0.095,0.291 -0.136,0.445 -0.035,0.155 -0.057,0.284 -0.057,0.388 0,0.173 0.049,0.34 0.15,0.507 0.098,0.167 0.237,0.306 0.409,0.409 0.175,0.105 0.361,0.161 0.566,0.161 0.393,0 0.664,-0.119 0.813,-0.36 0.148,-0.233 0.314,-0.629 0.496,-1.184"
           style="fill:#5bc4f0;fill-opacity:1;fill-rule:nonzero;stroke:none"
           id="path9424" />
        <path
           d="m 353.311,28.324 h 4.304 c -0.056,0.845 -0.273,1.48 -0.656,1.898 -0.381,0.419 -0.881,0.63 -1.502,0.63 -0.588,0 -1.076,-0.213 -1.453,-0.639 -0.381,-0.424 -0.608,-1.056 -0.693,-1.889 m 4.646,-1.409 h -4.646 c 0.002,-0.566 0.115,-1.06 0.322,-1.493 0.217,-0.426 0.496,-0.749 0.846,-0.97 0.351,-0.22 0.74,-0.325 1.164,-0.325 0.283,0 0.545,0.034 0.777,0.101 0.234,0.074 0.463,0.181 0.685,0.329 0.217,0.148 0.418,0.303 0.606,0.479 0.184,0.167 0.432,0.395 0.721,0.687 0.125,0.114 0.298,0.165 0.523,0.165 0.246,0 0.441,-0.068 0.592,-0.209 0.152,-0.141 0.224,-0.335 0.224,-0.588 0,-0.225 -0.082,-0.487 -0.251,-0.789 -0.168,-0.296 -0.416,-0.585 -0.762,-0.864 -0.34,-0.273 -0.766,-0.499 -1.279,-0.684 -0.51,-0.181 -1.098,-0.271 -1.77,-0.271 -1.523,0 -2.711,0.456 -3.555,1.361 -0.843,0.912 -1.267,2.14 -1.267,3.691 0,0.741 0.107,1.416 0.312,2.041 0.209,0.627 0.512,1.164 0.912,1.611 0.401,0.451 0.891,0.796 1.479,1.032 0.588,0.239 1.234,0.359 1.951,0.359 0.922,0 1.719,-0.204 2.383,-0.615 0.666,-0.408 1.162,-0.933 1.492,-1.578 0.332,-0.652 0.496,-1.309 0.496,-1.985 0,-0.62 -0.166,-1.024 -0.512,-1.207 -0.345,-0.188 -0.822,-0.278 -1.443,-0.278"
           style="fill:#5bc4f0;fill-opacity:1;fill-rule:nonzero;stroke:none"
           id="path9426" />
        <path
           d="m 370.432,25.552 c 0,-0.308 -0.088,-0.639 -0.268,-0.989 -0.178,-0.351 -0.443,-0.684 -0.809,-1.001 -0.361,-0.318 -0.82,-0.575 -1.373,-0.766 -0.548,-0.197 -1.171,-0.292 -1.857,-0.292 -1.471,0 -2.615,0.446 -3.437,1.338 -0.821,0.893 -1.237,2.087 -1.237,3.589 0,1.015 0.188,1.918 0.569,2.696 0.376,0.777 0.918,1.385 1.632,1.81 0.711,0.428 1.567,0.641 2.559,0.641 0.615,0 1.176,-0.096 1.693,-0.28 0.512,-0.19 0.944,-0.433 1.305,-0.727 0.357,-0.297 0.627,-0.613 0.818,-0.949 0.186,-0.335 0.282,-0.648 0.282,-0.939 0,-0.293 -0.104,-0.543 -0.323,-0.752 -0.209,-0.206 -0.465,-0.31 -0.765,-0.31 -0.2,0 -0.362,0.058 -0.489,0.163 -0.134,0.103 -0.279,0.27 -0.445,0.51 -0.289,0.458 -0.59,0.806 -0.906,1.04 -0.317,0.229 -0.719,0.347 -1.207,0.347 -0.697,0 -1.266,-0.29 -1.694,-0.862 -0.431,-0.576 -0.644,-1.356 -0.644,-2.349 0,-0.465 0.059,-0.898 0.164,-1.286 0.111,-0.392 0.271,-0.722 0.48,-0.999 0.209,-0.277 0.463,-0.485 0.758,-0.625 0.291,-0.145 0.617,-0.216 0.973,-0.216 0.475,0 0.885,0.113 1.223,0.344 0.337,0.233 0.64,0.583 0.902,1.051 0.144,0.284 0.299,0.5 0.469,0.66 0.166,0.158 0.371,0.232 0.617,0.232 0.287,0 0.531,-0.111 0.717,-0.341 0.195,-0.234 0.293,-0.477 0.293,-0.738"
           style="fill:#5bc4f0;fill-opacity:1;fill-rule:nonzero;stroke:none"
           id="path9428" />
        <path
           d="m 372.637,32.349 h 0.261 v 1.491 c 0,0.395 0.01,0.713 0.032,0.938 0.019,0.228 0.072,0.419 0.17,0.584 0.089,0.167 0.224,0.308 0.4,0.414 0.172,0.105 0.365,0.155 0.58,0.155 0.301,0 0.574,-0.118 0.816,-0.351 0.161,-0.16 0.266,-0.35 0.309,-0.574 0.045,-0.228 0.065,-0.554 0.065,-0.97 v -1.687 h 0.873 c 0.336,0 0.593,-0.083 0.769,-0.25 0.18,-0.166 0.266,-0.377 0.266,-0.638 0,-0.333 -0.125,-0.57 -0.381,-0.7 -0.25,-0.131 -0.611,-0.198 -1.082,-0.198 h -0.445 v -4.565 c 0,-0.389 0.013,-0.686 0.039,-0.897 0.029,-0.211 0.103,-0.38 0.214,-0.507 0.11,-0.132 0.293,-0.199 0.551,-0.199 0.139,0 0.326,0.025 0.567,0.079 0.232,0.05 0.418,0.076 0.554,0.076 0.19,0 0.368,-0.083 0.518,-0.237 0.15,-0.164 0.23,-0.358 0.23,-0.596 0,-0.399 -0.205,-0.703 -0.625,-0.917 -0.422,-0.211 -1.019,-0.317 -1.8,-0.317 -0.743,0 -1.307,0.13 -1.69,0.391 -0.381,0.262 -0.635,0.618 -0.75,1.084 -0.121,0.46 -0.18,1.072 -0.18,1.842 v 4.763 h -0.316 c -0.336,0 -0.598,0.083 -0.779,0.254 -0.182,0.168 -0.27,0.382 -0.27,0.644 0,0.261 0.094,0.472 0.28,0.638 0.191,0.167 0.464,0.25 0.824,0.25"
           style="fill:#5bc4f0;fill-opacity:1;fill-rule:nonzero;stroke:none"
           id="path9430" />
        <path
           d="m 385.314,27.517 c 0,1.006 -0.214,1.796 -0.638,2.358 -0.43,0.56 -0.998,0.845 -1.719,0.845 -0.465,0 -0.873,-0.128 -1.227,-0.378 -0.355,-0.254 -0.626,-0.624 -0.816,-1.115 -0.191,-0.486 -0.289,-1.055 -0.289,-1.71 0,-0.649 0.098,-1.213 0.285,-1.697 0.188,-0.483 0.455,-0.854 0.807,-1.113 0.349,-0.255 0.762,-0.382 1.24,-0.382 0.721,0 1.289,0.28 1.719,0.847 0.424,0.562 0.638,1.348 0.638,2.345 m 2.383,0 c 0,-0.736 -0.109,-1.416 -0.332,-2.044 -0.219,-0.618 -0.539,-1.156 -0.955,-1.604 -0.418,-0.449 -0.918,-0.784 -1.496,-1.03 -0.58,-0.238 -1.228,-0.356 -1.957,-0.356 -0.723,0 -1.369,0.118 -1.941,0.364 -0.573,0.24 -1.073,0.587 -1.491,1.038 -0.42,0.452 -0.74,0.981 -0.955,1.594 -0.216,0.62 -0.324,1.294 -0.324,2.042 0,0.75 0.108,1.435 0.324,2.057 0.227,0.625 0.537,1.155 0.95,1.601 0.414,0.44 0.912,0.781 1.496,1.019 0.591,0.239 1.236,0.362 1.941,0.362 0.721,0 1.369,-0.123 1.957,-0.366 0.586,-0.241 1.086,-0.589 1.504,-1.037 0.414,-0.447 0.738,-0.981 0.953,-1.599 0.217,-0.616 0.326,-1.298 0.326,-2.041"
           style="fill:#5bc4f0;fill-opacity:1;fill-rule:nonzero;stroke:none"
           id="path9432" />
        <path
           d="m 391.928,26.056 v -2.064 c 0,-0.503 -0.114,-0.882 -0.34,-1.135 -0.227,-0.247 -0.514,-0.374 -0.863,-0.374 -0.34,0 -0.623,0.13 -0.842,0.38 -0.221,0.254 -0.328,0.629 -0.328,1.129 v 6.897 c 0,1.115 0.383,1.671 1.154,1.671 0.391,0 0.678,-0.134 0.854,-0.392 0.171,-0.259 0.263,-0.646 0.287,-1.152 0.283,0.506 0.576,0.893 0.875,1.152 0.298,0.258 0.695,0.392 1.191,0.392 0.504,0 0.984,-0.134 1.457,-0.392 0.467,-0.259 0.705,-0.605 0.705,-1.034 0,-0.303 -0.103,-0.556 -0.303,-0.749 -0.197,-0.196 -0.414,-0.297 -0.648,-0.297 -0.086,0 -0.297,0.058 -0.631,0.171 -0.334,0.111 -0.629,0.169 -0.885,0.169 -0.345,0 -0.629,-0.094 -0.847,-0.289 -0.221,-0.193 -0.393,-0.472 -0.516,-0.847 -0.121,-0.378 -0.209,-0.822 -0.252,-1.343 -0.045,-0.513 -0.068,-1.143 -0.068,-1.893"
           style="fill:#5bc4f0;fill-opacity:1;fill-rule:nonzero;stroke:none"
           id="path9434" />
        <path
           d="m 404.576,25.721 c 0,-0.685 -0.16,-1.269 -0.482,-1.757 -0.321,-0.488 -0.791,-0.854 -1.414,-1.109 -0.625,-0.245 -1.381,-0.372 -2.28,-0.372 -0.845,0 -1.58,0.137 -2.191,0.41 -0.607,0.272 -1.059,0.611 -1.346,1.018 -0.293,0.406 -0.441,0.817 -0.441,1.227 0,0.272 0.096,0.507 0.285,0.699 0.184,0.196 0.42,0.291 0.701,0.291 0.25,0 0.444,-0.065 0.576,-0.19 0.135,-0.132 0.258,-0.308 0.383,-0.537 0.244,-0.444 0.533,-0.773 0.877,-0.992 0.334,-0.221 0.799,-0.327 1.389,-0.327 0.472,0 0.863,0.111 1.168,0.333 0.303,0.22 0.461,0.473 0.461,0.757 0,0.437 -0.162,0.757 -0.475,0.953 -0.32,0.205 -0.838,0.395 -1.564,0.574 -0.817,0.214 -1.483,0.436 -1.996,0.667 -0.514,0.234 -0.93,0.544 -1.235,0.924 -0.306,0.377 -0.463,0.85 -0.463,1.406 0,0.498 0.143,0.968 0.428,1.406 0.283,0.444 0.707,0.795 1.26,1.06 0.553,0.264 1.221,0.398 2.006,0.398 0.613,0 1.166,-0.07 1.658,-0.202 0.488,-0.131 0.902,-0.312 1.224,-0.535 0.329,-0.224 0.581,-0.471 0.75,-0.742 0.174,-0.276 0.258,-0.542 0.258,-0.801 0,-0.285 -0.09,-0.513 -0.275,-0.702 -0.184,-0.175 -0.445,-0.267 -0.777,-0.267 -0.247,0 -0.452,0.071 -0.625,0.219 -0.168,0.144 -0.368,0.361 -0.586,0.648 -0.18,0.243 -0.391,0.438 -0.637,0.583 -0.244,0.143 -0.574,0.218 -0.99,0.218 -0.43,0 -0.789,-0.095 -1.069,-0.288 -0.285,-0.189 -0.429,-0.427 -0.429,-0.712 0,-0.261 0.105,-0.474 0.312,-0.641 0.211,-0.166 0.49,-0.304 0.846,-0.414 0.355,-0.11 0.842,-0.245 1.463,-0.401 0.736,-0.185 1.338,-0.41 1.804,-0.671 0.467,-0.258 0.821,-0.565 1.061,-0.92 0.244,-0.358 0.365,-0.76 0.365,-1.211"
           style="fill:#5bc4f0;fill-opacity:1;fill-rule:nonzero;stroke:none"
           id="path9436" />
        <path
           d="m 407.271,22.483 c -0.359,0 -0.669,0.118 -0.927,0.364 -0.266,0.24 -0.395,0.581 -0.395,1.013 0,0.368 0.123,0.687 0.369,0.953 0.25,0.266 0.561,0.396 0.926,0.396 0.363,0 0.676,-0.13 0.928,-0.394 0.262,-0.258 0.392,-0.583 0.392,-0.955 0,-0.428 -0.13,-0.766 -0.392,-1.009 -0.252,-0.246 -0.553,-0.368 -0.901,-0.368"
           style="fill:#5bc4f0;fill-opacity:1;fill-rule:nonzero;stroke:none"
           id="path9438" />
        <path
           d="m 417.771,27.517 c 0,1.006 -0.214,1.796 -0.64,2.358 -0.426,0.56 -0.996,0.845 -1.715,0.845 -0.465,0 -0.869,-0.128 -1.225,-0.378 -0.355,-0.254 -0.627,-0.624 -0.816,-1.115 -0.189,-0.486 -0.287,-1.055 -0.287,-1.71 0,-0.649 0.092,-1.213 0.279,-1.697 0.194,-0.483 0.461,-0.854 0.813,-1.113 0.349,-0.255 0.761,-0.382 1.236,-0.382 0.719,0 1.289,0.28 1.715,0.847 0.426,0.562 0.64,1.348 0.64,2.345 m 2.387,0 c 0,-0.736 -0.109,-1.416 -0.334,-2.044 -0.22,-0.618 -0.537,-1.156 -0.955,-1.604 -0.42,-0.449 -0.912,-0.784 -1.496,-1.03 -0.578,-0.238 -1.23,-0.356 -1.957,-0.356 -0.719,0 -1.365,0.118 -1.939,0.364 -0.575,0.24 -1.069,0.587 -1.489,1.038 -0.425,0.452 -0.742,0.981 -0.963,1.594 -0.212,0.62 -0.322,1.294 -0.322,2.042 0,0.75 0.11,1.435 0.33,2.057 0.225,0.625 0.535,1.155 0.946,1.601 0.412,0.44 0.912,0.781 1.498,1.019 0.586,0.239 1.228,0.362 1.939,0.362 0.719,0 1.371,-0.123 1.957,-0.366 0.588,-0.241 1.088,-0.589 1.506,-1.037 0.416,-0.447 0.732,-0.981 0.953,-1.599 0.217,-0.616 0.326,-1.298 0.326,-2.041"
           style="fill:#5bc4f0;fill-opacity:1;fill-rule:nonzero;stroke:none"
           id="path9440" />
        <path
           d="m 424.387,26.056 v -2.064 c 0,-0.503 -0.114,-0.882 -0.338,-1.135 -0.225,-0.247 -0.514,-0.374 -0.86,-0.374 -0.347,0 -0.625,0.13 -0.847,0.38 -0.221,0.254 -0.33,0.629 -0.33,1.129 v 6.897 c 0,1.115 0.39,1.671 1.158,1.671 0.394,0 0.676,-0.134 0.85,-0.392 0.171,-0.259 0.273,-0.646 0.293,-1.152 0.279,0.506 0.57,0.893 0.869,1.152 0.298,0.258 0.699,0.392 1.193,0.392 0.506,0 0.99,-0.134 1.455,-0.392 0.471,-0.259 0.707,-0.605 0.707,-1.034 0,-0.303 -0.101,-0.556 -0.299,-0.749 -0.203,-0.196 -0.416,-0.297 -0.652,-0.297 -0.084,0 -0.293,0.058 -0.627,0.171 -0.334,0.111 -0.629,0.169 -0.887,0.169 -0.345,0 -0.627,-0.094 -0.853,-0.289 -0.217,-0.193 -0.389,-0.472 -0.512,-0.847 -0.119,-0.378 -0.205,-0.822 -0.25,-1.343 -0.045,-0.513 -0.07,-1.143 -0.07,-1.893"
           style="fill:#5bc4f0;fill-opacity:1;fill-rule:nonzero;stroke:none"
           id="path9442" />
        <path
           d="m 431.242,27.602 c 0,-1.002 0.211,-1.763 0.633,-2.28 0.418,-0.511 0.965,-0.772 1.627,-0.772 0.393,0 0.769,0.115 1.119,0.336 0.352,0.221 0.637,0.552 0.859,0.997 0.221,0.447 0.329,0.985 0.329,1.619 0,1.01 -0.215,1.796 -0.641,2.358 -0.424,0.568 -0.986,0.85 -1.68,0.85 -0.675,0 -1.222,-0.275 -1.629,-0.81 -0.412,-0.542 -0.617,-1.304 -0.617,-2.298 m 6.883,3.143 v -7.202 c 0,-0.824 -0.09,-1.532 -0.254,-2.122 -0.168,-0.597 -0.439,-1.086 -0.808,-1.473 -0.372,-0.387 -0.86,-0.673 -1.456,-0.862 -0.601,-0.183 -1.349,-0.278 -2.24,-0.278 -0.82,0 -1.553,0.115 -2.193,0.354 -0.645,0.245 -1.141,0.549 -1.488,0.93 -0.348,0.375 -0.524,0.764 -0.524,1.167 0,0.303 0.098,0.549 0.299,0.738 0.195,0.194 0.434,0.289 0.711,0.289 0.349,0 0.65,-0.162 0.916,-0.481 0.127,-0.168 0.262,-0.331 0.394,-0.495 0.135,-0.169 0.286,-0.313 0.452,-0.428 0.166,-0.121 0.367,-0.208 0.599,-0.267 0.227,-0.057 0.496,-0.086 0.799,-0.086 0.611,0 1.094,0.091 1.43,0.269 0.34,0.177 0.578,0.427 0.717,0.747 0.13,0.32 0.216,0.662 0.23,1.03 0.029,0.371 0.045,0.956 0.061,1.769 -0.366,-0.531 -0.793,-0.938 -1.268,-1.215 -0.477,-0.278 -1.049,-0.414 -1.705,-0.414 -0.801,0 -1.496,0.207 -2.086,0.634 -0.598,0.423 -1.055,1.013 -1.373,1.78 -0.315,0.759 -0.479,1.64 -0.479,2.64 0,0.748 0.096,1.42 0.295,2.02 0.19,0.596 0.465,1.102 0.83,1.514 0.356,0.412 0.774,0.722 1.243,0.932 0.472,0.206 0.982,0.313 1.548,0.313 0.67,0 1.254,-0.137 1.746,-0.407 0.499,-0.266 0.952,-0.693 1.375,-1.266 v 0.333 c 0,0.433 0.106,0.762 0.305,1.005 0.203,0.233 0.465,0.353 0.781,0.353 0.461,0 0.766,-0.155 0.918,-0.467 0.149,-0.313 0.225,-0.766 0.225,-1.354"
           style="fill:#5bc4f0;fill-opacity:1;fill-rule:nonzero;stroke:none"
           id="path9444" />
        <path
           d="m 335.207,54.876 h 3.523 c -0.25,-1.899 -1.027,-3.382 -2.322,-4.448 -1.197,-1.044 -2.646,-1.56 -4.342,-1.56 -2.298,0 -4.134,0.808 -5.505,2.421 -1.299,1.533 -1.948,3.514 -1.948,5.933 0,2.479 0.645,4.462 1.93,5.962 1.283,1.494 3.1,2.246 5.445,2.246 1.746,0 3.223,-0.473 4.42,-1.41 1.272,-1.012 2.047,-2.435 2.322,-4.258 h -3.523 c -0.303,1.59 -1.273,2.382 -2.926,2.382 -2.72,0 -4.086,-1.614 -4.086,-4.84 0,-1.512 0.352,-2.746 1.051,-3.709 0.701,-0.964 1.688,-1.447 2.961,-1.447 1.898,0 2.898,0.911 3,2.728 m -13.863,2.222 c 0,-3.153 1,-5.822 2.996,-7.994 1.998,-2.175 4.443,-3.263 7.346,-3.263 2.89,0 5.337,1.088 7.334,3.263 2,2.172 2.994,4.841 2.994,7.994 0,3.15 -0.994,5.816 -2.994,7.991 -1.997,2.177 -4.444,3.264 -7.334,3.264 -2.903,0 -5.348,-1.087 -7.346,-3.264 -1.996,-2.175 -2.996,-4.841 -2.996,-7.991 m -3.578,0 c 0,4.01 1.357,7.433 4.074,10.278 2.721,2.839 6.002,4.259 9.846,4.259 3.835,0 7.113,-1.42 9.835,-4.259 2.719,-2.845 4.081,-6.268 4.081,-10.278 0,-4.014 -1.362,-7.443 -4.081,-10.281 -2.722,-2.841 -6,-4.262 -9.835,-4.262 -3.844,0 -7.125,1.421 -9.846,4.262 -2.717,2.838 -4.074,6.267 -4.074,10.281"
           style="fill:#5bc4f0;fill-opacity:1;fill-rule:nonzero;stroke:none"
           id="path9446" />
        <path
           d="m 323.398,47.979 2.03,-1.721 14.927,19.169 -2.029,1.719 z"
           style="fill:#5bc4f0;fill-opacity:1;fill-rule:nonzero;stroke:none"
           id="path9448" />
      </g>
    </g>
  </g>
</svg>
