<?xml version="1.0" encoding="UTF-8" standalone="no"?>
<!-- Created with Inkscape (http://www.inkscape.org/) -->

<svg
   width="150"
   height="450"
   viewBox="0 0 39.687499 119.0625"
   version="1.1"
   id="svg226"
   inkscape:version="1.2.1 (9c6d41e410, 2022-07-14)"
   sodipodi:docname="winter3_.svg"
   xmlns:inkscape="http://www.inkscape.org/namespaces/inkscape"
   xmlns:sodipodi="http://sodipodi.sourceforge.net/DTD/sodipodi-0.dtd"
   xmlns="http://www.w3.org/2000/svg"
   xmlns:svg="http://www.w3.org/2000/svg">
  <sodipodi:namedview
     id="namedview228"
     pagecolor="#ffffff"
     bordercolor="#000000"
     borderopacity="0.25"
     inkscape:showpageshadow="2"
     inkscape:pageopacity="0.0"
     inkscape:pagecheckerboard="0"
     inkscape:deskcolor="#d1d1d1"
     inkscape:document-units="mm"
     showgrid="false"
     inkscape:zoom="1.0544998"
     inkscape:cx="328.11766"
     inkscape:cy="259.36468"
     inkscape:window-width="1346"
     inkscape:window-height="1040"
     inkscape:window-x="149"
     inkscape:window-y="145"
     inkscape:window-maximized="0"
     inkscape:current-layer="layer1" />
  <defs
     id="defs223" />
  <g
     inkscape:label="Ebene 1"
     inkscape:groupmode="layer"
     id="layer1">
    <g
       id="g10"
       transform="matrix(0.02256967,0,0,-0.02256967,-42.355535,134.86973)">
      <path
         d="M 0,6000.53 H 6000.57 V -0.0390625 H 0 V 5254.34 6000.53"
         style="fill:#569ddb;fill-opacity:1;fill-rule:evenodd;stroke:none"
         id="path12" />
      <path
         d="M 0,3533 412.109,3945.11 4042.98,314.328 0,1375.88 V 3533"
         style="fill:#e8f7fd;fill-opacity:1;fill-rule:evenodd;stroke:none"
         id="path14" />
      <path
         d="m 412.129,3945.14 755.111,-2875.71 2265.61,-145 z"
         style="fill:#bae4f8;fill-opacity:1;fill-rule:evenodd;stroke:none"
         id="path16" />
      <path
         d="m 3012.04,1214.41 2120.62,2120.62 867.87,-867.86 V 429.699 L 3012.04,1214.41"
         style="fill:#e8f7fd;fill-opacity:1;fill-rule:evenodd;stroke:none"
         id="path18" />
      <path
         d="m 5132.66,3335.03 755.12,-2875.721 112.75,-7.207 V 2467.17 l -867.87,867.86"
         style="fill:#bae4f8;fill-opacity:1;fill-rule:evenodd;stroke:none"
         id="path20" />
      <path
         d="M 136.324,2464.49 2256.94,4585.11 5887.78,954.27 Z"
         style="fill:#e8f7fd;fill-opacity:1;fill-rule:evenodd;stroke:none"
         id="path22" />
      <path
         d="m 742.227,2609.17 705.363,691.68 162.78,-153.61 330.06,284.87 506.43,-827.44 -497.38,470.09 -45.22,-981.04 -309.72,813.42 -852.313,-297.97"
         style="fill:#bae4f8;fill-opacity:1;fill-rule:evenodd;stroke:none"
         id="path24" />
      <path
         d="M 2256.94,4585.11 3012.04,1709.39 5277.67,1564.4 Z"
         style="fill:#bae4f8;fill-opacity:1;fill-rule:evenodd;stroke:none"
         id="path26" />
      <path
         d="m 4851.24,2556.75 47.04,-260.59 -47.04,7.97 50.98,-29.79 32.61,-180.62 14.4,-79.68 -88.78,30.54 97.44,-78.57 39.5,-218.66 -124.23,42.88 132.42,-88.27 12.86,-71.28 H 4851.24 4684 l 20.43,113.12 101.68,69.55 -93.38,-23.61 46.81,259.33 77.8,52.45 -70.97,-14.71 1.24,6.91 42.86,237.27 31.49,22.28 -28.32,-4.56 37.6,208.04"
         style="fill:#6bb0e4;fill-opacity:1;fill-rule:evenodd;stroke:none"
         id="path28" />
      <path
         d="m 4558.27,2839.93 60.21,-333.26 -60.21,10.19 65.24,-38.11 41.71,-231 18.4,-101.92 -113.54,39.07 124.64,-100.47 50.49,-279.66 -158.85,54.84 169.32,-112.91 16.49,-91.15 h -213.9 -213.85 l 26.13,144.69 130.04,88.92 -119.45,-30.18 59.9,331.66 99.49,67.08 -90.76,-18.82 1.58,8.85 54.8,303.44 40.3,28.5 -36.22,-5.83 48.04,266.07"
         style="fill:#6bb0e4;fill-opacity:1;fill-rule:evenodd;stroke:none"
         id="path30" />
      <path
         d="m 3125.08,3219.34 60.18,-333.27 -60.18,10.18 65.23,-38.09 41.71,-231.01 18.4,-101.9 -113.54,39.06 124.64,-100.48 50.49,-279.66 -158.85,54.85 169.34,-112.91 16.46,-91.16 h -213.88 -213.86 l 26.12,144.69 130.04,88.95 -119.43,-30.21 59.88,331.66 99.48,67.08 -90.75,-18.82 1.58,8.85 54.81,303.45 40.28,28.49 -36.19,-5.83 48.04,266.08"
         style="fill:#6bb0e4;fill-opacity:1;fill-rule:evenodd;stroke:none"
         id="path32" />
      <path
         d="m 2888.04,3022.27 60.18,-333.27 -60.18,10.18 65.21,-38.1 41.72,-231 18.4,-101.91 -113.53,39.06 124.62,-100.47 50.5,-279.66 -158.86,54.83 169.34,-112.89 16.47,-91.16 h -213.87 -213.87 l 26.13,144.69 130.04,88.93 -119.45,-30.19 59.9,331.66 99.48,67.09 -90.76,-18.83 1.59,8.85 54.79,303.46 40.3,28.47 -36.21,-5.81 48.06,266.07"
         style="fill:#6bb0e4;fill-opacity:1;fill-rule:evenodd;stroke:none"
         id="path34" />
      <path
         d="m 3395.63,2769.7 60.19,-333.26 -60.19,10.18 65.23,-38.1 41.71,-231.02 18.42,-101.91 -113.55,39.07 124.63,-100.48 50.5,-279.65 -158.86,54.83 169.34,-112.89 16.45,-91.15 h -213.87 -213.85 l 26.11,144.68 130.05,88.93 -119.44,-30.19 59.89,331.65 99.48,67.09 -90.77,-18.83 1.61,8.85 54.8,303.46 40.27,28.5 -36.18,-5.83 48.03,266.07"
         style="fill:#6bb0e4;fill-opacity:1;fill-rule:evenodd;stroke:none"
         id="path36" />
      <path
         d="m 1262.32,3432.13 60.18,-333.27 -60.18,10.19 65.22,-38.1 41.71,-231.02 18.41,-101.91 -113.54,39.06 124.62,-100.47 50.5,-279.65 -158.85,54.84 169.34,-112.9 16.46,-91.15 h -213.87 -213.87 l 26.13,144.67 130.04,88.94 -119.44,-30.18 59.89,331.64 99.48,67.09 -90.77,-18.82 1.6,8.84 54.8,303.46 40.28,28.5 -36.19,-5.83 48.05,266.07"
         style="fill:#6bb0e4;fill-opacity:1;fill-rule:evenodd;stroke:none"
         id="path38" />
      <path
         d="m 1003.87,3799.37 60.18,-333.26 -60.18,10.18 65.22,-38.1 41.72,-231.01 18.4,-101.9 -113.53,39.07 124.61,-100.49 50.5,-279.66 -158.85,54.84 169.34,-112.89 16.46,-91.16 H 1003.87 790.004 l 26.125,144.68 130.047,88.95 -119.442,-30.21 59.891,331.66 99.473,67.09 -90.75,-18.83 1.586,8.85 54.8,303.46 40.282,28.49 -36.192,-5.83 48.046,266.07"
         style="fill:#6bb0e4;fill-opacity:1;fill-rule:evenodd;stroke:none"
         id="path40" />
      <path
         d="m 313.949,3700.2 60.176,-333.26 -60.176,10.18 65.223,-38.1 41.707,-231 18.406,-101.91 -113.531,39.06 124.617,-100.48 50.496,-279.64 -158.851,54.83 169.339,-112.91 16.458,-91.14 H 313.949 100.074 l 26.121,144.68 130.055,88.94 -119.437,-30.19 59.886,331.64 99.477,67.09 -90.762,-18.83 1.598,8.86 54.797,303.44 40.285,28.5 -36.196,-5.83 48.051,266.07"
         style="fill:#6bb0e4;fill-opacity:1;fill-rule:evenodd;stroke:none"
         id="path42" />
      <path
         d="M 0,3039.17 6000.57,1362.38 V -0.0390625 H 0 V 3039.17"
         style="fill:#ffffff;fill-opacity:1;fill-rule:evenodd;stroke:none"
         id="path44" />
      <path
         d="m 2438.67,3893.04 686.41,-759.35 -560.69,280.55 -126.59,-375.03 501.91,-269.51 -533.56,-61.05 -149.21,863.63 181.73,320.76"
         style="fill:#e8f7fd;fill-opacity:1;fill-rule:evenodd;stroke:none"
         id="path46" />
      <path
         d="M 0,2627.15 4861.44,-0.0390625 H 0 V 2627.15"
         style="fill:#e8f7fd;fill-opacity:1;fill-rule:evenodd;stroke:none"
         id="path48" />
      <path
         d="m 2384.88,5292.84 c 16.37,0 32.79,-2.75 48.89,-7.85 24.9,87.23 91.19,145.58 180.87,145.58 89.94,0 180.9,-58.69 242.29,-146.34 20.2,25.52 49.64,40.84 85.24,40.84 39.33,0 78.98,-18.7 111.84,-49.2 18.11,108.57 92.31,184.01 196.74,184.01 114.52,0 230.63,-90.74 290.88,-216.42 22.57,20.16 51.69,31.79 85.48,31.79 91.5,0 184.48,-85.27 215.45,-194.14 H 2253.58 c -23.52,117.12 34.93,211.73 131.3,211.73"
         style="fill:#ffffff;fill-opacity:1;fill-rule:evenodd;stroke:none"
         id="path50" />
      <path
         d="m 3808.76,4095.98 c -1.63,5.77 -3.09,11.59 -4.33,17.49 -21.83,104.41 29.95,189.06 115.65,189.06 52.21,0 104.98,-31.41 143.17,-79.56 29.7,58.28 83.53,95.1 152.1,95.1 92.31,0 185.75,-66.67 241.89,-162.62 17.78,26.95 45.92,43.48 80.66,43.48 27.76,0 55.7,-10.54 80.64,-28.52 17.33,87.5 78.82,147.66 164.43,147.66 54.02,0 108.45,-23.95 154.81,-63.59 20.52,20.52 47.95,32.51 80.22,32.51 85.72,0 172.92,-84.65 194.72,-189.06 l 0.41,-1.95 H 3808.76"
         style="fill:#ffffff;fill-opacity:1;fill-rule:evenodd;stroke:none"
         id="path52" />
      <path
         d="M 688.063,3180.17 849.652,2285.31 688.063,2312.67 863.184,2210.35 975.188,1590.08 1024.6,1316.47 719.75,1421.35 1054.38,1151.57 1189.97,400.68 763.43,547.891 1218.12,244.77 1262.32,0 H 688.063 113.805 l 70.148,388.488 349.199,238.821 -320.711,-81.071 160.801,890.512 267.11,180.12 -243.711,-50.53 4.289,23.74 147.136,814.82 108.164,76.5 -97.175,-15.65 129.008,714.42"
         style="fill:#2a5a94;fill-opacity:1;fill-rule:evenodd;stroke:none"
         id="path54" />
      <path
         d="m 5747.61,4038 205.17,-1136.25 -205.17,34.74 222.36,-129.9 30.56,-169.19 v -905.82 l -212.69,73.18 212.69,-171.5 V 641.41 L 5843.3,695.699 6000.53,590.871 V 0 h -252.92 -729.17 l 89.08,493.281 443.38,303.239 -407.21,-102.911 204.18,1130.681 339.15,228.72 -309.44,-64.15 5.44,30.14 186.84,1034.61 137.33,97.14 -123.37,-19.87 163.79,907.12"
         style="fill:#2a5a94;fill-opacity:1;fill-rule:evenodd;stroke:none"
         id="path56" />
      <path
         d="M 0,819.012 675.676,368.559 742.227,0 H 0 Z M 0,2079.95 V 821.891 L 633.285,603.289 429.117,1733.96 Z M 0,3410.78 141.227,3328.28 309.879,2394.3 384.277,1982.29 0,2114.5 Z M 0,4110.35 120.852,3441.14 0,3461.59 Z"
         style="fill:#1f4270;fill-opacity:1;fill-rule:evenodd;stroke:none"
         id="path58" />
      <path
         d="m 783.012,4354.51 c 230.358,0 418.248,187.89 418.248,418.26 0,230.36 -187.89,418.25 -418.248,418.25 -230.371,0 -418.262,-187.89 -418.262,-418.25 0,-230.37 187.891,-418.26 418.262,-418.26"
         style="fill:#ffffff;fill-opacity:1;fill-rule:evenodd;stroke:none"
         id="path60" />
      <path
         d="m 1934.28,76.2813 c -4.5,0 -7.47,1.3476 -8.91,4.2304 -1.44,2.7891 -2.16,6.9297 -2.16,12.2383 v 107.008 c 0,4.773 0.99,8.281 2.97,10.621 1.98,2.25 4.68,3.512 8.1,3.512 3.33,0 6.12,-1.262 8.19,-3.602 2.16,-2.43 3.15,-5.848 3.15,-10.348 v -2.972 c 4.5,5.761 9.09,9.992 13.95,12.601 4.77,2.789 10.26,4.141 16.38,4.141 7.29,0 14.04,-1.981 20.16,-5.941 6.12,-3.961 10.98,-9.629 14.58,-17.282 3.6,-7.558 5.31,-16.468 5.31,-26.816 0,-7.652 -0.99,-14.762 -3.06,-21.063 -1.98,-6.39 -4.86,-11.789 -8.46,-16.109 -3.6,-4.32 -7.83,-7.648 -12.78,-9.898 -4.86,-2.43 -10.17,-3.602 -15.75,-3.602 -6.84,0 -12.51,1.441 -17.1,4.32 -4.68,2.789 -9,6.93 -13.23,12.508 V 92.6602 c 0,-10.9805 -3.78,-16.3789 -11.34,-16.3789 m 35.82,119.0707 c -6.57,0 -12.06,-2.793 -16.56,-8.102 -4.5,-5.488 -6.75,-13.41 -6.75,-23.852 0,-9.898 2.25,-17.546 6.66,-22.949 4.5,-5.488 10.08,-8.277 16.65,-8.277 3.96,0 7.65,1.168 10.98,3.598 3.33,2.429 6.03,5.941 8.1,10.71 2.07,4.86 3.06,10.622 3.06,17.372 0,6.57 -0.99,12.148 -2.88,16.828 -1.89,4.679 -4.59,8.281 -8.01,10.89 -3.42,2.43 -7.11,3.782 -11.25,3.782"
         style="fill:#9ea2a5;fill-opacity:1;fill-rule:nonzero;stroke:none"
         id="path62" />
      <path
         d="m 2108.07,113.09 c -3.24,0 -5.94,1.262 -8.1,3.601 -2.07,2.52 -3.15,5.938 -3.15,10.348 v 3.152 c -2.88,-3.781 -5.85,-6.839 -9,-9.359 -3.15,-2.613 -6.57,-4.5 -10.26,-5.762 -3.69,-1.172 -7.92,-1.8 -12.69,-1.8 -5.76,0 -10.89,1.261 -15.39,3.691 -4.59,2.43 -8.1,5.848 -10.62,10.258 -2.97,5.222 -4.41,12.871 -4.41,22.679 v 49.141 c 0,4.859 1.08,8.641 3.24,11.07 2.16,2.43 4.95,3.692 8.46,3.692 3.6,0 6.57,-1.262 8.73,-3.781 2.16,-2.43 3.33,-6.122 3.33,-10.981 v -39.687 c 0,-5.762 0.45,-10.622 1.35,-14.493 0.99,-3.871 2.61,-6.929 5.04,-9.179 2.34,-2.25 5.67,-3.328 9.72,-3.328 4.05,0 7.83,1.257 11.34,3.777 3.6,2.43 6.12,5.672 7.74,9.633 1.35,3.597 1.98,11.25 1.98,23.129 v 30.148 c 0,4.859 1.17,8.551 3.33,10.981 2.25,2.519 5.04,3.781 8.64,3.781 3.51,0 6.39,-1.262 8.46,-3.692 2.16,-2.429 3.24,-6.211 3.24,-11.07 v -71.82 c 0,-4.77 -0.99,-8.278 -3.06,-10.617 -2.07,-2.43 -4.68,-3.512 -7.92,-3.512"
         style="fill:#9ea2a5;fill-opacity:1;fill-rule:nonzero;stroke:none"
         id="path64" />
      <path
         d="m 2195.19,113 c -3.6,0 -7.11,0.539 -10.35,1.441 -3.15,0.899 -5.94,2.071 -8.19,3.598 -2.25,1.352 -4.14,2.969 -5.76,4.5 -1.62,1.621 -3.69,3.961 -6.3,7.109 v -2.429 c 0,-4.68 -1.08,-8.188 -3.24,-10.617 -2.16,-2.43 -4.86,-3.602 -8.19,-3.602 -3.33,0 -6.03,1.172 -8.01,3.602 -1.98,2.429 -3.06,5.937 -3.06,10.617 v 108.179 c 0,5.043 0.99,8.821 2.97,11.43 1.89,2.613 4.59,3.871 8.1,3.871 3.69,0 6.48,-1.258 8.46,-3.687 1.98,-2.524 2.97,-5.942 2.97,-10.442 v -37.89 c 4.41,4.859 9,8.55 13.59,11.16 4.68,2.519 10.44,3.871 17.28,3.871 7.92,0 14.76,-1.981 20.79,-5.852 5.85,-3.961 10.53,-9.629 13.77,-17.007 3.33,-7.473 4.95,-16.204 4.95,-26.372 0,-7.562 -0.9,-14.398 -2.7,-20.699 -1.89,-6.301 -4.5,-11.699 -8.01,-16.293 -3.51,-4.59 -7.74,-8.097 -12.69,-10.707 -4.95,-2.429 -10.44,-3.781 -16.38,-3.781 m -6.03,82.352 c -4.5,0 -8.46,-1.352 -12.06,-3.961 -3.51,-2.52 -6.3,-6.301 -8.37,-11.161 -1.98,-4.859 -2.97,-10.621 -2.97,-17.371 0,-9.898 2.07,-17.461 6.39,-22.769 4.32,-5.219 9.99,-7.918 17.01,-7.918 6.03,0 11.16,2.699 15.48,8.098 4.32,5.492 6.48,13.14 6.48,23.308 0,6.57 -0.9,12.152 -2.7,16.922 -1.8,4.68 -4.32,8.371 -7.65,10.891 -3.33,2.609 -7.11,3.961 -11.61,3.961"
         style="fill:#9ea2a5;fill-opacity:1;fill-rule:nonzero;stroke:none"
         id="path66" />
      <path
         d="m 2263.5,113 c -3.51,0 -6.3,1.352 -8.55,3.961 -2.16,2.609 -3.24,6.301 -3.24,11.16 v 107.457 c 0,5.043 1.08,8.731 3.15,11.25 2.16,2.613 5.04,3.871 8.64,3.871 3.6,0 6.48,-1.258 8.64,-3.781 2.16,-2.52 3.33,-6.297 3.33,-11.34 V 128.121 c 0,-5.043 -1.17,-8.82 -3.33,-11.34 -2.25,-2.429 -5.13,-3.781 -8.64,-3.781"
         style="fill:#9ea2a5;fill-opacity:1;fill-rule:nonzero;stroke:none"
         id="path68" />
      <path
         d="m 2311.74,113 c -3.51,0 -6.3,1.352 -8.46,3.961 -2.16,2.609 -3.33,6.301 -3.33,11.16 v 70.918 c 0,4.859 1.17,8.551 3.33,10.981 2.16,2.519 4.95,3.781 8.46,3.781 3.42,0 6.39,-1.262 8.64,-3.781 2.16,-2.43 3.33,-5.848 3.33,-10.348 v -71.551 c 0,-4.953 -1.17,-8.73 -3.33,-11.25 -2.25,-2.519 -5.22,-3.871 -8.64,-3.871 m 0.27,112.32 c -3.33,0 -6.12,1.078 -8.55,3.239 -2.25,2.07 -3.51,5.132 -3.51,9 0,3.511 1.26,6.39 3.69,8.64 2.34,2.34 5.13,3.422 8.37,3.422 3.06,0 5.76,-0.992 8.19,-3.062 2.34,-2.071 3.51,-5.129 3.51,-9 0,-3.868 -1.17,-6.84 -3.42,-8.911 -2.34,-2.16 -5.13,-3.328 -8.28,-3.328"
         style="fill:#9ea2a5;fill-opacity:1;fill-rule:nonzero;stroke:none"
         id="path70" />
      <path
         d="m 2390.31,113.27 c -14.67,0 -26.19,4.41 -34.38,13.32 -8.28,9 -12.33,20.879 -12.33,35.91 0,10.168 1.8,19.172 5.58,27 3.78,7.738 9.27,13.859 16.38,18.09 7.11,4.23 15.66,6.39 25.56,6.39 6.21,0 11.79,-0.992 16.92,-2.789 5.13,-1.89 9.54,-4.32 13.05,-7.293 3.6,-2.968 6.3,-6.117 8.19,-9.449 1.89,-3.328 2.79,-6.48 2.79,-9.449 0,-2.879 -0.99,-5.398 -3.15,-7.469 -2.07,-2.07 -4.68,-3.152 -7.65,-3.152 -1.98,0 -3.6,0.633 -4.95,1.711 -1.26,0.992 -2.79,2.609 -4.41,5.039 -2.88,4.59 -5.94,8.101 -9.09,10.441 -3.15,2.25 -7.2,3.418 -11.97,3.418 -7.11,0 -12.78,-2.879 -17.01,-8.547 -4.32,-5.761 -6.48,-13.589 -6.48,-23.582 0,-4.589 0.63,-8.91 1.71,-12.777 1.08,-3.961 2.7,-7.293 4.77,-9.992 2.07,-2.789 4.59,-4.86 7.56,-6.301 2.97,-1.437 6.21,-2.16 9.72,-2.16 4.77,0 8.82,1.172 12.24,3.422 3.42,2.34 6.39,5.847 9,10.527 1.44,2.883 3.06,5.043 4.68,6.66 1.71,1.532 3.78,2.25 6.21,2.25 2.88,0 5.31,-1.078 7.2,-3.418 1.89,-2.34 2.88,-4.769 2.88,-7.379 0,-3.062 -0.9,-6.39 -2.61,-9.812 -1.8,-3.598 -4.5,-6.93 -8.1,-10.078 -3.69,-3.153 -8.19,-5.762 -13.68,-7.653 -5.58,-1.976 -11.79,-2.878 -18.63,-2.878"
         style="fill:#9ea2a5;fill-opacity:1;fill-rule:nonzero;stroke:none"
         id="path72" />
      <path
         d="m 2530.35,113 c -3.24,0 -5.94,1.262 -8.1,3.691 -2.07,2.43 -3.15,5.938 -3.15,10.528 v 2.429 c -3.15,-3.867 -6.3,-6.929 -9.45,-9.269 -3.06,-2.43 -6.48,-4.231 -10.08,-5.488 -3.6,-1.172 -7.56,-1.891 -11.88,-1.891 -5.67,0 -10.89,1.352 -15.75,3.781 -4.86,2.61 -9,6.117 -12.51,10.801 -3.6,4.676 -6.21,10.168 -8.1,16.469 -1.8,6.211 -2.7,13.051 -2.7,20.429 0,15.481 3.6,27.54 10.8,36.27 7.29,8.641 16.83,12.961 28.62,12.961 6.84,0 12.69,-1.262 17.37,-3.781 4.68,-2.43 9.27,-6.211 13.68,-11.25 v 36.539 c 0,5.133 0.99,8.91 2.97,11.519 1.89,2.614 4.68,3.961 8.28,3.961 3.6,0 6.3,-1.258 8.28,-3.597 1.98,-2.344 2.97,-5.942 2.97,-10.532 V 127.219 c 0,-4.77 -1.08,-8.278 -3.15,-10.617 -2.07,-2.43 -4.77,-3.602 -8.1,-3.602 m -35.46,82.352 c -4.32,0 -8.19,-1.352 -11.7,-3.961 -3.33,-2.52 -6.03,-6.211 -7.92,-11.071 -1.89,-4.859 -2.79,-10.351 -2.79,-16.742 0,-6.75 0.99,-12.418 2.97,-17.187 1.98,-4.68 4.68,-8.192 8.19,-10.621 3.51,-2.43 7.29,-3.598 11.34,-3.598 4.23,0 8.01,1.168 11.52,3.418 3.42,2.25 6.12,5.762 8.28,10.441 1.98,4.68 3.06,10.528 3.06,17.547 0,6.66 -1.08,12.242 -3.06,17.012 -2.16,4.769 -4.86,8.371 -8.37,10.98 -3.51,2.43 -7.38,3.782 -11.52,3.782"
         style="fill:#9ea2a5;fill-opacity:1;fill-rule:nonzero;stroke:none"
         id="path74" />
      <path
         d="m 2606.85,113 c -7.11,0 -13.59,1.172 -19.35,3.691 -5.76,2.34 -10.71,5.848 -14.94,10.348 -4.23,4.5 -7.38,9.813 -9.54,15.93 -2.25,6.211 -3.24,12.961 -3.24,20.429 0,7.473 1.08,14.403 3.24,20.614 2.25,6.207 5.4,11.519 9.45,16.019 4.14,4.41 9.18,7.739 15.03,10.168 5.85,2.34 12.33,3.602 19.35,3.602 7.2,0 13.77,-1.262 19.62,-3.692 5.85,-2.339 10.8,-5.847 15.03,-10.351 4.14,-4.406 7.38,-9.809 9.54,-16.02 2.16,-6.117 3.24,-12.957 3.24,-20.34 0,-7.378 -1.08,-14.218 -3.33,-20.429 -2.16,-6.207 -5.31,-11.61 -9.54,-16.11 -4.14,-4.5 -9.18,-7.828 -14.94,-10.257 -5.85,-2.43 -12.42,-3.602 -19.62,-3.602 m 0,82.441 c -4.59,0 -8.73,-1.351 -12.24,-3.781 -3.51,-2.609 -6.3,-6.301 -8.19,-11.16 -1.89,-4.859 -2.88,-10.621 -2.88,-17.102 0,-6.48 0.99,-12.148 2.88,-17.007 1.89,-4.86 4.59,-8.551 8.1,-11.071 3.42,-2.609 7.65,-3.871 12.33,-3.871 7.2,0 12.96,2.789 17.19,8.461 4.32,5.668 6.39,13.5 6.39,23.488 0,10.082 -2.07,17.911 -6.39,23.582 -4.23,5.579 -9.99,8.461 -17.19,8.461"
         style="fill:#9ea2a5;fill-opacity:1;fill-rule:nonzero;stroke:none"
         id="path76" />
      <path
         d="m 2795.22,113 c -3.6,0 -6.57,1.352 -8.82,4.051 -2.34,2.519 -3.51,6.48 -3.51,11.609 v 41.762 c 0,5.308 -0.18,9.539 -0.63,12.777 -0.45,3.242 -1.62,5.852 -3.51,8.102 -1.89,2.16 -4.86,3.238 -8.73,3.238 -3.06,0 -6.12,-0.988 -8.82,-2.879 -2.88,-1.98 -5.04,-4.59 -6.66,-7.828 -1.71,-4.23 -2.61,-11.613 -2.61,-22.23 V 128.66 c 0,-5.129 -1.08,-9.09 -3.42,-11.699 -2.25,-2.609 -5.22,-3.961 -8.91,-3.961 -3.6,0 -6.48,1.352 -8.73,3.961 -2.25,2.609 -3.33,6.57 -3.33,11.699 v 39.508 c 0,6.211 -0.27,11.07 -0.63,14.582 -0.45,3.422 -1.53,6.301 -3.33,8.461 -1.71,2.25 -4.59,3.328 -8.46,3.328 -7.74,0 -12.87,-2.789 -15.39,-8.367 -2.43,-5.582 -3.69,-13.59 -3.69,-23.942 v -33.57 c 0,-5.129 -1.08,-9.09 -3.33,-11.609 -2.25,-2.699 -5.13,-4.051 -8.73,-4.051 -3.69,0 -6.66,1.352 -8.91,4.051 -2.34,2.519 -3.42,6.48 -3.42,11.609 v 70.922 c 0,4.68 0.99,8.188 3.06,10.617 2.07,2.43 4.77,3.692 8.19,3.692 3.24,0 5.94,-1.172 8.1,-3.422 2.16,-2.25 3.24,-5.399 3.24,-9.36 v -2.429 c 4.14,5.218 8.55,9 13.23,11.34 4.68,2.429 9.9,3.691 15.66,3.691 5.94,0 11.07,-1.262 15.39,-3.781 4.23,-2.43 7.74,-6.211 10.53,-11.25 4.05,5.039 8.37,8.91 12.87,11.34 4.68,2.429 9.72,3.691 15.21,3.691 6.57,0 12.15,-1.352 16.83,-4.051 4.68,-2.609 8.19,-6.39 10.53,-11.43 2.07,-4.5 3.06,-11.519 3.06,-21.148 V 128.66 c 0,-5.129 -1.17,-9.09 -3.42,-11.699 -2.25,-2.609 -5.22,-3.961 -8.91,-3.961"
         style="fill:#9ea2a5;fill-opacity:1;fill-rule:nonzero;stroke:none"
         id="path78" />
      <path
         d="m 2905.38,113 c -2.43,0 -4.77,1.172 -7.2,3.602 -2.34,2.429 -4.95,5.847 -7.56,10.347 -5.76,-4.59 -11.34,-8.097 -16.65,-10.347 -5.4,-2.43 -11.43,-3.602 -18.09,-3.602 -6.12,0 -11.43,1.352 -16.02,3.781 -4.68,2.52 -8.19,5.938 -10.71,10.258 -2.43,4.32 -3.69,8.91 -3.69,13.949 0,6.84 2.07,12.602 6.21,17.371 4.05,4.77 9.72,7.922 16.92,9.629 1.44,0.364 5.22,1.082 11.16,2.434 6.03,1.258 11.16,2.43 15.48,3.418 4.23,1.082 8.82,2.34 13.86,3.871 -0.36,6.57 -1.62,11.34 -3.78,14.488 -2.25,3.063 -6.93,4.5 -13.95,4.5 -6.03,0 -10.53,-0.808 -13.68,-2.609 -2.97,-1.711 -5.58,-4.41 -7.74,-7.918 -2.25,-3.512 -3.69,-5.852 -4.59,-6.934 -0.99,-1.168 -2.88,-1.617 -5.85,-1.617 -2.61,0 -4.95,0.809 -6.84,2.609 -1.98,1.801 -2.97,4.051 -2.97,6.84 0,4.41 1.53,8.641 4.41,12.688 2.97,4.14 7.65,7.562 13.86,10.262 6.3,2.609 14.04,3.96 23.4,3.96 10.44,0 18.63,-1.351 24.66,-3.871 5.94,-2.519 10.17,-6.57 12.6,-12.238 2.52,-5.492 3.78,-12.871 3.78,-22.141 0,-5.761 0,-10.71 -0.09,-14.761 -0.09,-4.051 -0.09,-8.547 -0.09,-13.59 0,-4.59 0.72,-9.449 2.16,-14.488 1.44,-5.039 2.25,-8.371 2.25,-9.723 0,-2.609 -1.17,-4.949 -3.51,-7.02 -2.25,-2.07 -4.86,-3.148 -7.74,-3.148 m -16.29,49.859 c -3.51,-1.347 -8.55,-2.699 -15.21,-4.23 -6.66,-1.438 -11.25,-2.52 -13.86,-3.238 -2.52,-0.719 -4.95,-2.071 -7.29,-4.051 -2.34,-2.07 -3.42,-4.949 -3.42,-8.551 0,-3.777 1.35,-7.019 4.05,-9.629 2.7,-2.609 6.3,-3.961 10.71,-3.961 4.68,0 9.09,1.082 13.05,3.242 3.96,2.161 6.84,4.95 8.73,8.368 2.07,3.691 3.24,9.902 3.24,18.543 v 3.507"
         style="fill:#9ea2a5;fill-opacity:1;fill-rule:nonzero;stroke:none"
         id="path80" />
      <path
         d="m 2948.22,113 c -3.42,0 -6.3,1.352 -8.46,3.961 -2.16,2.609 -3.24,6.301 -3.24,11.16 v 70.918 c 0,4.859 1.08,8.551 3.24,10.981 2.16,2.519 5.04,3.781 8.46,3.781 3.51,0 6.39,-1.262 8.64,-3.781 2.25,-2.43 3.33,-5.848 3.33,-10.348 v -71.551 c 0,-4.953 -1.08,-8.73 -3.33,-11.25 -2.25,-2.519 -5.13,-3.871 -8.64,-3.871 m 0.27,112.32 c -3.24,0 -6.12,1.078 -8.46,3.239 -2.34,2.07 -3.51,5.132 -3.51,9 0,3.511 1.17,6.39 3.6,8.64 2.43,2.34 5.22,3.422 8.37,3.422 3.06,0 5.85,-0.992 8.19,-3.062 2.34,-2.071 3.51,-5.129 3.51,-9 0,-3.868 -1.08,-6.84 -3.42,-8.911 -2.34,-2.16 -5.13,-3.328 -8.28,-3.328"
         style="fill:#9ea2a5;fill-opacity:1;fill-rule:nonzero;stroke:none"
         id="path82" />
      <path
         d="m 3056.94,113 c -3.51,0 -6.39,1.352 -8.55,3.961 -2.16,2.609 -3.33,6.301 -3.33,11.16 v 41.309 c 0,8.191 -1.08,14.402 -3.24,18.718 -2.25,4.321 -6.57,6.481 -13.05,6.481 -4.23,0 -8.1,-1.258 -11.52,-3.961 -3.51,-2.609 -6.03,-6.207 -7.65,-10.797 -1.17,-3.691 -1.8,-10.621 -1.8,-20.793 v -30.957 c 0,-5.043 -1.08,-8.82 -3.33,-11.34 -2.25,-2.429 -5.13,-3.781 -8.64,-3.781 -3.42,0 -6.21,1.352 -8.46,3.961 -2.25,2.609 -3.33,6.301 -3.33,11.16 v 71.551 c 0,4.769 0.99,8.277 2.97,10.617 1.98,2.34 4.68,3.512 8.1,3.512 2.07,0 3.96,-0.539 5.67,-1.531 1.71,-1.079 3.06,-2.61 4.05,-4.59 0.99,-2.16 1.53,-4.68 1.53,-7.649 v -2.883 c 4.14,5.672 8.73,9.903 13.68,12.602 4.95,2.699 10.62,4.051 17.1,4.051 6.21,0 11.88,-1.442 16.83,-4.321 4.86,-2.789 8.55,-6.75 10.98,-11.968 1.62,-3.063 2.61,-6.391 3.06,-9.903 0.45,-3.418 0.72,-7.918 0.72,-13.41 v -46.078 c 0,-4.953 -1.17,-8.73 -3.33,-11.25 -2.16,-2.519 -4.95,-3.871 -8.46,-3.871"
         style="fill:#9ea2a5;fill-opacity:1;fill-rule:nonzero;stroke:none"
         id="path84" />
      <path
         d="m 3125.97,113 c -3.33,0 -6.03,0.809 -8.01,2.43 -1.98,1.621 -3.51,3.332 -4.41,5.308 -0.99,1.891 -2.61,5.672 -4.86,11.25 l -22.59,58.41 c -0.54,1.442 -1.08,2.883 -1.71,4.321 -0.54,1.441 -0.9,2.883 -1.35,4.41 -0.36,1.621 -0.54,2.883 -0.54,3.871 0,1.801 0.45,3.418 1.53,5.129 0.9,1.621 2.34,3.062 4.05,4.051 1.71,1.082 3.6,1.621 5.67,1.621 3.87,0 6.66,-1.172 8.1,-3.602 1.53,-2.34 3.15,-6.301 4.95,-11.879 l 19.17,-56.25 20.7,58.77 c 1.71,4.68 3.24,8.012 4.86,9.992 1.62,1.977 3.96,2.969 7.11,2.969 3.06,0 5.58,-1.082 7.74,-3.242 2.07,-2.071 3.15,-4.5 3.15,-7.289 0,-1.168 -0.18,-2.34 -0.54,-3.782 -0.36,-1.527 -0.81,-2.879 -1.35,-4.136 -0.45,-1.262 -0.99,-2.704 -1.71,-4.321 l -22.77,-59.043 c -0.63,-1.707 -1.44,-3.867 -2.43,-6.476 -1.08,-2.524 -2.16,-4.774 -3.42,-6.66 -1.26,-1.801 -2.79,-3.243 -4.59,-4.231 -1.89,-1.082 -4.14,-1.621 -6.75,-1.621"
         style="fill:#9ea2a5;fill-opacity:1;fill-rule:nonzero;stroke:none"
         id="path86" />
      <path
         d="m 3227.94,113 c -15.21,0 -27.09,4.59 -35.55,13.68 -8.46,9.09 -12.69,21.332 -12.69,36.898 0,7.383 1.08,14.133 3.15,20.434 2.07,6.207 5.13,11.609 9.09,16.019 4.05,4.59 8.91,8.008 14.85,10.348 5.85,2.43 12.33,3.601 19.44,3.601 9.27,0 17.19,-2.07 23.85,-6.121 6.66,-4.14 11.61,-9.359 14.94,-15.839 3.33,-6.481 4.95,-13.051 4.95,-19.801 0,-6.211 -1.62,-10.258 -5.13,-12.059 -3.42,-1.89 -8.19,-2.789 -14.4,-2.789 H 3204 c 0,-5.672 1.08,-10.621 3.15,-14.941 2.16,-4.231 4.95,-7.469 8.46,-9.719 3.51,-2.16 7.47,-3.242 11.7,-3.242 2.79,0 5.4,0.359 7.74,0.992 2.34,0.719 4.59,1.797 6.84,3.328 2.16,1.441 4.23,3.063 6.03,4.77 1.89,1.711 4.32,3.961 7.29,6.839 1.17,1.172 2.97,1.711 5.22,1.711 2.43,0 4.41,-0.718 5.85,-2.16 1.53,-1.347 2.25,-3.328 2.25,-5.847 0,-2.25 -0.81,-4.864 -2.52,-7.922 -1.62,-2.879 -4.14,-5.852 -7.56,-8.551 -3.42,-2.789 -7.65,-5.039 -12.78,-6.93 -5.13,-1.801 -10.98,-2.699 -17.73,-2.699 m -2.52,83.699 c -5.85,0 -10.8,-2.07 -14.49,-6.39 -3.87,-4.231 -6.12,-10.528 -6.93,-18.899 h 43.02 c -0.54,8.461 -2.79,14.852 -6.57,18.988 -3.87,4.231 -8.82,6.301 -15.03,6.301"
         style="fill:#9ea2a5;fill-opacity:1;fill-rule:nonzero;stroke:none"
         id="path88" />
      <path
         d="m 3332.07,113.27 c -14.67,0 -26.1,4.41 -34.38,13.32 -8.19,9 -12.33,20.879 -12.33,35.91 0,10.168 1.89,19.172 5.67,27 3.78,7.738 9.18,13.859 16.38,18.09 7.11,4.23 15.66,6.39 25.56,6.39 6.12,0 11.79,-0.992 16.92,-2.789 5.13,-1.89 9.45,-4.32 13.05,-7.293 3.6,-2.968 6.3,-6.117 8.19,-9.449 1.89,-3.328 2.79,-6.48 2.79,-9.449 0,-2.879 -0.99,-5.398 -3.24,-7.469 -2.07,-2.07 -4.59,-3.152 -7.65,-3.152 -1.98,0 -3.6,0.633 -4.86,1.711 -1.35,0.992 -2.79,2.609 -4.41,5.039 -2.97,4.59 -5.94,8.101 -9.09,10.441 -3.15,2.25 -7.2,3.418 -12.06,3.418 -7.02,0 -12.69,-2.879 -16.92,-8.547 -4.32,-5.761 -6.48,-13.589 -6.48,-23.582 0,-4.589 0.54,-8.91 1.62,-12.777 1.17,-3.961 2.7,-7.293 4.86,-9.992 2.07,-2.789 4.59,-4.86 7.56,-6.301 2.88,-1.437 6.12,-2.16 9.72,-2.16 4.77,0 8.82,1.172 12.24,3.422 3.33,2.34 6.39,5.847 9,10.527 1.44,2.883 2.97,5.043 4.68,6.66 1.71,1.532 3.69,2.25 6.21,2.25 2.88,0 5.31,-1.078 7.11,-3.418 1.98,-2.34 2.97,-4.769 2.97,-7.379 0,-3.062 -0.9,-6.39 -2.7,-9.812 -1.8,-3.598 -4.41,-6.93 -8.1,-10.078 -3.6,-3.153 -8.19,-5.762 -13.68,-7.653 -5.49,-1.976 -11.7,-2.878 -18.63,-2.878"
         style="fill:#9ea2a5;fill-opacity:1;fill-rule:nonzero;stroke:none"
         id="path90" />
      <path
         d="m 3426.03,113 c -7.47,0 -13.05,1.352 -16.92,3.961 -3.78,2.609 -6.3,6.207 -7.47,10.801 -1.26,4.59 -1.8,10.707 -1.8,18.449 v 47.609 h -3.15 c -3.42,0 -6.03,0.809 -7.83,2.52 -1.8,1.711 -2.7,3.871 -2.7,6.48 0,2.61 0.99,4.68 2.79,6.391 1.98,1.621 4.68,2.519 8.28,2.519 h 2.61 v 14.848 c 0,3.961 0.09,7.113 0.27,9.453 0.27,2.25 0.72,4.137 1.71,5.758 0.9,1.711 2.25,3.152 4.05,4.141 1.71,1.082 3.6,1.621 5.76,1.621 3.06,0 5.76,-1.172 8.19,-3.512 1.62,-1.617 2.61,-3.508 3.06,-5.758 0.45,-2.25 0.63,-5.582 0.63,-9.722 V 211.73 h 8.73 c 3.42,0 5.94,-0.898 7.74,-2.519 1.8,-1.711 2.61,-3.781 2.61,-6.391 0,-3.332 -1.17,-5.672 -3.78,-7.019 -2.52,-1.262 -6.12,-1.981 -10.8,-1.981 h -4.5 v -45.629 c 0,-3.871 0.18,-6.839 0.45,-9 0.27,-2.07 0.99,-3.781 2.07,-5.043 1.17,-1.347 2.97,-1.976 5.58,-1.976 1.35,0 3.24,0.269 5.67,0.808 2.34,0.45 4.14,0.719 5.49,0.719 1.89,0 3.69,-0.808 5.22,-2.34 1.53,-1.621 2.25,-3.597 2.25,-6.031 0,-3.957 -1.98,-7.019 -6.21,-9.09 -4.23,-2.16 -10.17,-3.238 -18,-3.238"
         style="fill:#9ea2a5;fill-opacity:1;fill-rule:nonzero;stroke:none"
         id="path92" />
      <path
         d="m 3500.37,113 c -7.2,0 -13.68,1.172 -19.35,3.691 -5.76,2.34 -10.71,5.848 -14.94,10.348 -4.14,4.5 -7.38,9.813 -9.54,15.93 -2.16,6.211 -3.24,12.961 -3.24,20.429 0,7.473 1.08,14.403 3.24,20.614 2.25,6.207 5.4,11.519 9.54,16.019 4.14,4.41 9.09,7.739 14.94,10.168 5.94,2.34 12.33,3.602 19.35,3.602 7.29,0 13.77,-1.262 19.62,-3.692 5.85,-2.339 10.89,-5.847 15.03,-10.351 4.14,-4.406 7.38,-9.809 9.54,-16.02 2.16,-6.117 3.24,-12.957 3.24,-20.34 0,-7.378 -1.08,-14.218 -3.33,-20.429 -2.16,-6.207 -5.4,-11.61 -9.54,-16.11 -4.14,-4.5 -9.18,-7.828 -14.94,-10.257 -5.85,-2.43 -12.24,-3.602 -19.62,-3.602 m 0,82.441 c -4.59,0 -8.73,-1.351 -12.24,-3.781 -3.51,-2.609 -6.21,-6.301 -8.1,-11.16 -1.98,-4.859 -2.97,-10.621 -2.97,-17.102 0,-6.48 0.99,-12.148 2.88,-17.007 1.89,-4.86 4.59,-8.551 8.1,-11.071 3.51,-2.609 7.56,-3.871 12.33,-3.871 7.29,0 12.96,2.789 17.19,8.461 4.32,5.668 6.39,13.5 6.39,23.488 0,10.082 -2.07,17.911 -6.39,23.582 -4.23,5.579 -9.9,8.461 -17.19,8.461"
         style="fill:#9ea2a5;fill-opacity:1;fill-rule:nonzero;stroke:none"
         id="path94" />
      <path
         d="m 3578.13,113 c -3.42,0 -6.3,1.352 -8.46,3.871 -2.16,2.52 -3.24,6.297 -3.24,11.25 v 68.938 c 0,11.16 3.78,16.742 11.52,16.742 3.87,0 6.75,-1.352 8.55,-3.871 1.71,-2.61 2.61,-6.481 2.88,-11.61 2.79,5.129 5.76,9 8.73,11.61 2.97,2.519 6.93,3.871 11.88,3.871 5.04,0 9.81,-1.352 14.58,-3.871 4.68,-2.61 7.02,-6.121 7.02,-10.348 0,-3.062 -0.99,-5.582 -2.97,-7.562 -1.98,-1.891 -4.14,-2.969 -6.48,-2.969 -0.9,0 -2.97,0.629 -6.3,1.711 -3.33,1.168 -6.3,1.707 -8.91,1.707 -3.42,0 -6.3,-0.899 -8.46,-2.879 -2.16,-1.891 -3.96,-4.68 -5.13,-8.461 -1.26,-3.777 -2.07,-8.188 -2.52,-13.41 -0.45,-5.129 -0.72,-11.43 -0.72,-18.989 v -20.609 c 0,-5.043 -1.08,-8.82 -3.33,-11.34 -2.34,-2.429 -5.22,-3.781 -8.64,-3.781"
         style="fill:#9ea2a5;fill-opacity:1;fill-rule:nonzero;stroke:none"
         id="path96" />
      <path
         d="m 3674.88,113 c -8.46,0 -15.84,1.441 -21.96,4.141 -6.03,2.699 -10.62,6.121 -13.41,10.168 -2.97,4.05 -4.41,8.191 -4.41,12.242 0,2.789 0.9,5.129 2.79,7.019 1.89,1.981 4.23,2.879 7.02,2.879 2.52,0 4.41,-0.629 5.76,-1.89 1.35,-1.258 2.61,-3.059 3.87,-5.309 2.43,-4.5 5.31,-7.738 8.73,-9.992 3.33,-2.156 8.01,-3.238 13.95,-3.238 4.68,0 8.55,1.082 11.61,3.332 3.06,2.16 4.68,4.769 4.68,7.558 0,4.41 -1.62,7.559 -4.77,9.539 -3.24,2.071 -8.37,3.961 -15.66,5.762 -8.19,2.16 -14.85,4.32 -19.98,6.66 -5.13,2.34 -9.27,5.399 -12.33,9.27 -3.06,3.781 -4.59,8.461 -4.59,14.039 0,4.949 1.35,9.629 4.23,14.039 2.79,4.41 7.11,7.922 12.6,10.621 5.58,2.609 12.24,3.961 20.07,3.961 6.12,0 11.7,-0.723 16.56,-1.981 4.86,-1.351 9,-3.148 12.24,-5.402 3.33,-2.246 5.85,-4.68 7.56,-7.379 1.71,-2.789 2.52,-5.398 2.52,-8.008 0,-2.883 -0.9,-5.133 -2.7,-7.019 -1.89,-1.801 -4.5,-2.703 -7.83,-2.703 -2.43,0 -4.5,0.722 -6.21,2.16 -1.71,1.441 -3.69,3.601 -5.85,6.48 -1.8,2.43 -3.96,4.41 -6.39,5.852 -2.43,1.437 -5.76,2.16 -9.9,2.16 -4.32,0 -7.92,-0.902 -10.71,-2.879 -2.79,-1.891 -4.23,-4.23 -4.23,-7.113 0,-2.61 0.99,-4.68 3.06,-6.391 2.16,-1.617 4.95,-3.058 8.46,-4.137 3.6,-1.082 8.46,-2.429 14.67,-3.961 7.38,-1.89 13.32,-4.14 18,-6.75 4.68,-2.609 8.19,-5.671 10.62,-9.179 2.43,-3.602 3.69,-7.653 3.69,-12.153 0,-6.839 -1.62,-12.687 -4.86,-17.546 -3.24,-4.864 -7.92,-8.551 -14.13,-11.071 -6.21,-2.429 -13.77,-3.781 -22.77,-3.781"
         style="fill:#9ea2a5;fill-opacity:1;fill-rule:nonzero;stroke:none"
         id="path98" />
      <path
         d="m 3743.55,113 c -3.6,0 -6.66,1.172 -9.27,3.691 -2.61,2.34 -3.96,5.758 -3.96,10.079 0,3.691 1.26,6.929 3.69,9.539 2.52,2.703 5.67,3.961 9.27,3.961 3.6,0 6.75,-1.258 9.27,-3.872 2.61,-2.609 3.96,-5.847 3.96,-9.628 0,-4.231 -1.35,-7.649 -3.96,-10.079 -2.52,-2.429 -5.49,-3.691 -9,-3.691"
         style="fill:#9ea2a5;fill-opacity:1;fill-rule:nonzero;stroke:none"
         id="path100" />
      <path
         d="m 3825,113 c -7.2,0 -13.68,1.172 -19.35,3.691 -5.76,2.34 -10.71,5.848 -14.94,10.348 -4.23,4.5 -7.38,9.813 -9.63,15.93 -2.07,6.211 -3.24,12.961 -3.24,20.429 0,7.473 1.17,14.403 3.33,20.614 2.25,6.207 5.4,11.519 9.45,16.019 4.14,4.41 9.18,7.739 15.03,10.168 5.85,2.34 12.24,3.602 19.35,3.602 7.2,0 13.68,-1.262 19.62,-3.692 5.85,-2.339 10.8,-5.847 15.03,-10.351 4.14,-4.406 7.29,-9.809 9.54,-16.02 2.16,-6.117 3.24,-12.957 3.24,-20.34 0,-7.378 -1.08,-14.218 -3.33,-20.429 -2.25,-6.207 -5.4,-11.61 -9.54,-16.11 -4.23,-4.5 -9.18,-7.828 -14.94,-10.257 C 3838.77,114.172 3832.29,113 3825,113 m 0,82.441 c -4.68,0 -8.64,-1.351 -12.24,-3.781 -3.51,-2.609 -6.3,-6.301 -8.19,-11.16 -1.89,-4.859 -2.88,-10.621 -2.88,-17.102 0,-6.48 0.99,-12.148 2.79,-17.007 1.98,-4.86 4.68,-8.551 8.19,-11.071 3.51,-2.609 7.56,-3.871 12.33,-3.871 7.2,0 12.87,2.789 17.19,8.461 4.23,5.668 6.39,13.5 6.39,23.488 0,10.082 -2.16,17.911 -6.39,23.582 -4.32,5.579 -9.99,8.461 -17.19,8.461"
         style="fill:#9ea2a5;fill-opacity:1;fill-rule:nonzero;stroke:none"
         id="path102" />
      <path
         d="m 3902.76,113 c -3.51,0 -6.3,1.352 -8.46,3.871 -2.25,2.52 -3.33,6.297 -3.33,11.25 v 68.938 c 0,11.16 3.87,16.742 11.61,16.742 3.87,0 6.75,-1.352 8.46,-3.871 1.71,-2.61 2.7,-6.481 2.97,-11.61 2.79,5.129 5.67,9 8.64,11.61 2.97,2.519 7.02,3.871 11.97,3.871 5.04,0 9.9,-1.352 14.49,-3.871 4.77,-2.61 7.11,-6.121 7.11,-10.348 0,-3.062 -0.99,-5.582 -2.97,-7.562 -2.07,-1.891 -4.14,-2.969 -6.57,-2.969 -0.81,0 -2.88,0.629 -6.21,1.711 -3.33,1.168 -6.3,1.707 -8.91,1.707 -3.42,0 -6.3,-0.899 -8.55,-2.879 -2.16,-1.891 -3.87,-4.68 -5.13,-8.461 -1.17,-3.777 -1.98,-8.188 -2.43,-13.41 -0.45,-5.129 -0.72,-11.43 -0.72,-18.989 v -20.609 c 0,-5.043 -1.17,-8.82 -3.42,-11.34 -2.25,-2.429 -5.13,-3.781 -8.55,-3.781"
         style="fill:#9ea2a5;fill-opacity:1;fill-rule:nonzero;stroke:none"
         id="path104" />
      <path
         d="m 4004.55,76.2813 c -8.19,0 -15.57,1.1679 -21.96,3.5078 -6.48,2.5195 -11.43,5.4922 -14.85,9.3593 -3.51,3.6914 -5.31,7.6524 -5.31,11.6136 0,3.058 0.99,5.488 3.06,7.379 1.89,1.98 4.32,2.968 7.11,2.968 3.42,0 6.48,-1.621 9.09,-4.859 1.35,-1.711 2.7,-3.328 3.96,-4.949 1.35,-1.7112 2.88,-3.1526 4.5,-4.3205 1.71,-1.1719 3.69,-2.0703 6.03,-2.6094 2.25,-0.6328 4.95,-0.9023 8.01,-0.9023 6.12,0 10.89,0.9023 14.31,2.7031 3.33,1.7969 5.76,4.3161 7.11,7.4691 1.35,3.238 2.16,6.66 2.34,10.347 0.27,3.692 0.45,9.543 0.63,17.641 -3.69,-5.309 -7.92,-9.359 -12.69,-12.149 -4.77,-2.789 -10.53,-4.14 -17.1,-4.14 -8.01,0 -14.94,2.07 -20.79,6.39 -6.03,4.231 -10.62,10.079 -13.77,17.731 -3.15,7.648 -4.77,16.469 -4.77,26.461 0,7.469 0.9,14.219 2.97,20.156 1.89,5.942 4.59,11.07 8.28,15.121 3.51,4.141 7.74,7.289 12.42,9.36 4.68,2.07 9.81,3.152 15.48,3.152 6.66,0 12.51,-1.352 17.46,-4.141 4.95,-2.609 9.54,-6.84 13.77,-12.601 v 3.332 c 0,4.32 0.99,7.558 3.06,9.988 1.98,2.34 4.59,3.602 7.74,3.602 4.68,0 7.65,-1.532 9.18,-4.68 1.53,-3.152 2.25,-7.652 2.25,-13.59 v -72 c 0,-8.191 -0.9,-15.301 -2.52,-21.242 -1.71,-5.9376 -4.41,-10.8009 -8.1,-14.6681 -3.69,-3.8711 -8.55,-6.75 -14.49,-8.6406 -6.03,-1.8008 -13.5,-2.789 -22.41,-2.789 m 1.17,119.0707 c -6.75,0 -12.24,-2.793 -16.29,-8.102 -4.14,-5.488 -6.12,-13.051 -6.12,-23.039 0,-9.992 2.07,-17.641 6.3,-22.77 4.14,-5.132 9.63,-7.742 16.29,-7.742 3.87,0 7.65,1.172 11.16,3.332 3.51,2.25 6.39,5.578 8.55,9.989 2.25,4.5 3.33,9.898 3.33,16.199 0,10.082 -2.16,18 -6.39,23.582 -4.23,5.668 -9.9,8.551 -16.83,8.551"
         style="fill:#9ea2a5;fill-opacity:1;fill-rule:nonzero;stroke:none"
         id="path106" />
      <path
         d="m 2987.73,313.789 c -38.43,0 -71.28,14.133 -98.46,42.57 -27.18,28.442 -40.77,62.731 -40.77,102.782 0,40.14 13.59,74.339 40.77,102.871 27.18,28.347 60.03,42.57 98.46,42.57 38.34,0 71.1,-14.223 98.37,-42.57 27.18,-28.532 40.77,-62.731 40.77,-102.871 0,-40.051 -13.59,-74.34 -40.77,-102.782 -27.27,-28.437 -60.03,-42.57 -98.37,-42.57 m -53.73,48.43 c 15.74,-10.367 33.64,-15.578 53.73,-15.578 28.89,0 53.37,10.89 73.35,32.578 19.98,21.781 29.88,48.422 29.88,79.922 0,28.5 -8.06,52.961 -24.3,73.398 l 7.74,9.941 -20.34,17.192 -6.36,-8.184 c -17.23,13.492 -37.24,20.242 -59.97,20.242 -29.07,0 -53.55,-10.89 -73.53,-32.671 -19.89,-21.688 -29.97,-48.329 -29.97,-79.918 0,-31.332 9.97,-57.852 29.65,-79.559 l -9.04,-11.613 20.25,-17.188 8.91,11.438 m 57.51,14.66 c -14.71,0 -27.5,3.312 -38.39,9.883 l 21.3,27.347 c 5.3,-2.918 11.47,-4.379 18.53,-4.379 18.9,0 28.98,9.09 29.97,27.27 h 35.19 c -2.43,-18.988 -10.26,-33.84 -23.22,-44.551 -11.97,-10.437 -26.46,-15.57 -43.38,-15.57 m -58.01,27.91 c -11,14.75 -16.51,33.301 -16.51,55.609 0,24.84 6.39,44.641 19.26,59.672 12.87,14.942 31.05,22.41 54.45,22.41 15.9,0 29.56,-3.878 40.91,-11.64 l -20.1,-25.828 c -4.64,3.078 -10.59,4.617 -17.84,4.617 -27.27,0 -40.86,-16.109 -40.86,-48.418 0,-9.813 1.49,-18.441 4.42,-25.93 l -23.73,-30.492 m 124.61,80.992 h -27.87 l 19.6,25.16 c 4.11,-7.3 6.87,-15.679 8.27,-25.16"
         style="fill:#9ea2a5;fill-opacity:1;fill-rule:nonzero;stroke:none"
         id="path108" />
      <path
         d="m 2925.09,350.781 -20.25,17.188 9.04,11.613 19.62,25.207 23.73,30.492 54.28,69.731 20.1,25.828 16.09,20.648 6.36,8.184 20.34,-17.192 -7.74,-9.941 -16.82,-21.598 -19.6,-25.16 -55.82,-71.672 -21.3,-27.347 -19.12,-24.543 -8.91,-11.438"
         style="fill:#9ea2a5;fill-opacity:1;fill-rule:nonzero;stroke:none"
         id="path110" />
    </g>
  </g>
</svg>
